<svg width="2029" height="424" fill="none" xmlns="http://www.w3.org/2000/svg"><path d="M.11 148.078c12.562-19.781 25.921-34.64 40.078-44.578 14.156-9.938 27.609-16.64 40.359-20.11 12.656-3.468 23.812-6.187 33.469-8.156 9.75-2.062 20.25-3.562 31.5-4.5 11.25-.937 23.953-1.593 38.109-1.968 14.156-.375 25.078.937 32.766 3.937-7.688-.375-13.313-.281-16.875.281-3.469.47-7.407 1.172-11.813 2.11-4.406.937-8.297 3-11.672 6.187-3.281 3.094-5.39 7.5-6.328 13.219-.844 5.625-1.265 11.672-1.265 18.141 0 6.468.374 24.75 1.124 54.843l89.297-14.343V108c0-7.781-.562-14.063-1.687-18.844-1.031-4.781-3.703-8.344-8.016-10.687-4.218-2.438-8.25-3.469-12.094-3.094-3.843.375-7.687 1.406-11.531 3.094-3.843 1.594-7.265 4.265-10.265 8.015 3-4.78 6.328-8.343 9.984-10.687 3.656-2.438 7.688-4.125 12.094-5.063 4.406-.937 11.297-1.687 20.672-2.25a706.824 706.824 0 0 1 27.281-1.125c8.906-.187 15.891-.984 20.953-2.39 5.156-1.5 9.469-3.516 12.938-6.047 3.562-2.625 6.421-5.672 8.578-9.14 2.25-3.563 3.375-7.079 3.375-10.548 0-3.468-.563-7.218-1.688-11.25 2.625 4.407 4.031 8.438 4.219 12.094.187 3.656-.75 7.64-2.813 11.953a56.94 56.94 0 0 1-7.734 11.813c-3.094 3.656-7.969 6.61-14.625 8.86-6.562 2.155-11.438 4.265-14.625 6.327-3.094 1.969-5.391 5.25-6.891 9.844-1.5 4.594-2.156 9-1.968 13.219.187 4.218.093 49.172-.282 134.859 2.625 7.781 4.828 12.141 6.61 13.078 1.875.844 3.797 1.641 5.765 2.391 2.063.75 4.266 1.219 6.61 1.406 2.437.188 6.609-1.922 12.515-6.328l-4.359 16.031c-10.687-1.5-18.891-2.25-24.609-2.25h-20.11c-7.687 0-16.218.469-25.594 1.407-9.374.937-16.828 2.39-22.359 4.359-5.531 2.062-11.062 5.297-16.594 9.703 4.782-5.531 9.563-9.609 14.344-12.234 4.781-2.532 9.281-4.172 13.5-4.922 4.219-.75 7.969-1.735 11.25-2.953 3.375-1.313 6.609-3.329 9.703-6.047 3.188-2.813 5.203-6.328 6.047-10.547.938-4.219 1.406-28.781 1.406-73.688l-89.297 14.907v39.796c1.032 15.75 2.204 24.75 3.516 27 1.313 2.157 3.328 3.797 6.047 4.922 2.813 1.125 5.297 1.782 7.453 1.969 2.25.188 4.828-.469 7.734-1.969 3-1.5 5.954-3.328 8.86-5.484l-4.922 17.016c-8.531-1.032-16.641-1.735-24.328-2.11-7.688-.375-16.781-.281-27.281.282-10.5.562-19.969 1.64-28.407 3.234-8.437 1.687-17.625 3.703-27.562 6.047-9.938 2.437-17.86 6.047-23.766 10.828-5.906 4.781-10.687 9.375-14.344 13.781 2.626-5.531 6.985-10.875 13.079-16.031 6-5.156 13.78-9.281 23.343-12.375 9.563-3.094 18.469-5.719 26.719-7.875 8.344-2.25 14.25-4.406 17.719-6.469 3.469-2.062 5.766-4.734 6.89-8.016 1.126-3.281 2.016-8.812 2.672-16.593V94.641c-1.031-4.407-2.39-7.594-4.078-9.563-1.687-2.062-4.734-3.422-9.14-4.078-4.407-.75-10.5-.469-18.282.844-7.687 1.219-17.578 3.61-29.671 7.172-12.188 3.468-22.782 7.875-31.782 13.218-9 5.344-19.172 13.266-30.515 23.766L.109 148.078zm432.562-15.047c-.469-.187.047-.562 1.547-1.125 1.593-.562 3.328-1.828 5.203-3.797 1.875-2.062 4.359-4.078 7.453-6.047 3.094-1.968 6.328-3.187 9.703-3.656a22.567 22.567 0 0 1 9.984.844c3.376.938 6.704 3.75 9.985 8.438-2.156-2.813-4.828-4.735-8.016-5.766-3.093-1.031-6.515-1.078-10.265-.141-3.75.844-6.844 2.391-9.282 4.641-2.437 2.156-5.437 6.234-9 12.234 1.688 2.063 4.219 5.86 7.594 11.391s5.813 13.219 7.313 23.062c1.593 9.844 1.875 18.75.843 26.719-1.031 7.969-3.14 15.422-6.328 22.36-3.187 6.843-6.89 12.937-11.109 18.281-4.219 5.25-8.109 9.281-11.672 12.093-3.563 2.813-7.875 5.297-12.937 7.454-4.969 2.062-10.5 3.468-16.594 4.218-6.094.844-12.469.797-19.125-.14-6.563-.844-12.985-2.485-19.266-4.922-6.187-2.438-11.859-5.86-17.015-10.266-5.063-4.5-9.61-9.609-13.641-15.328-3.938-5.812-6.75-12.656-8.438-20.531-1.687-7.875-2.297-14.859-1.828-20.953.469-6.094 1.313-11.203 2.531-15.328 1.219-4.125 3.235-8.766 6.047-13.922 2.907-5.25 5.016-8.532 6.329-9.844 1.406-1.406 3.14-3.234 5.203-5.484 2.156-2.344 4.687-4.547 7.593-6.61 2.907-2.156 5.438-3.937 7.594-5.344 2.25-1.5 4.781-2.578 7.594-3.234 2.906-.656 5.672-.984 8.297-.984 2.719 0 5.343.562 7.875 1.687 2.531 1.125 4.5 3.75 5.906 7.875-1.781-2.812-4.125-4.64-7.031-5.484-2.907-.938-6.047-1.078-9.422-.422-3.281.656-5.953 1.875-8.016 3.656-1.969 1.782-4.078 4.078-6.328 6.891-2.156 2.719-3.844 5.484-5.062 8.297-1.219 2.718-2.344 6.515-3.375 11.39-.938 4.875-1.594 10.782-1.969 17.719-.281 6.844-.141 13.219.422 19.125.562 5.813 1.828 12.281 3.797 19.406 1.968 7.125 4.687 13.125 8.156 18 3.469 4.875 7.5 8.766 12.094 11.672 4.687 2.906 9.796 4.969 15.328 6.188 5.531 1.125 10.828 1.125 15.89 0 5.157-1.219 9.891-3.516 14.204-6.891 4.406-3.375 8.484-8.109 12.234-14.203 3.75-6.094 6-10.922 6.75-14.484.844-3.563 1.64-7.594 2.39-12.094.75-4.594 1.172-9.656 1.266-15.188.188-5.531-.14-11.39-.984-17.578-.75-6.187-2.25-13.922-4.5-23.203l1.687-3.797c-2.343 2.532-4.219 4.172-5.625 4.922-1.312.75-2.859-.14-4.64-2.672-1.782-2.531-2.672-5.297-2.672-8.297 0-3-1.313-5.953-3.938-8.859-2.531-2.906-5.812-5.297-9.844-7.172-3.937-1.875-8.765-2.953-14.484-3.234-5.625-.375-10.594-.422-14.906-.141-4.313.188-9.61 1.266-15.891 3.235-6.187 1.968-11.109 4.265-14.765 6.89-3.563 2.531-6.282 4.688-8.157 6.469-1.781 1.687-3.937 4.125-6.468 7.312-2.532 3.094-6.329 9.844-11.391 20.25 1.969-9.093 4.781-16.406 8.438-21.937 3.656-5.531 7.874-10.36 12.656-14.484 4.781-4.126 9.703-7.313 14.765-9.563 5.063-2.25 10.688-3.891 16.875-4.922 6.282-1.125 13.125-1.5 20.532-1.125 7.5.281 14.484 1.594 20.953 3.938 6.562 2.343 13.547 6.515 20.953 12.515zm-49.781-37.265c26.625-3.563 43.406-6.282 50.343-8.157 6.938-1.968 14.11-4.5 21.516-7.593 7.406-3.094 15.844-6.188 25.312-9.282 9.469-3.187 17.157-5.859 23.063-8.015 5.906-2.25 14.156-2.766 24.75-1.547-11.531 1.781-18.844 3.469-21.937 5.062-3.094 1.594-4.922 3.891-5.485 6.891-.562 3-.797 32.672-.703 89.016.188 56.25 1.219 85.359 3.094 87.328 1.968 1.875 3.984 3 6.047 3.375 2.062.281 4.171 0 6.328-.844 2.25-.938 4.5-2.203 6.75-3.797 2.25-1.687 4.969-3.422 8.156-5.203l-7.031 21.375a115.967 115.967 0 0 0-18.844-2.953c-6.375-.469-12.328-.891-17.859-1.266-5.438-.468-12.516-.234-21.235.703-8.718.844-15.937 2.719-21.656 5.625-5.812 3-14.484 9.375-26.016 19.125 12.375-12.375 20.672-19.781 24.891-22.218 4.125-2.344 8.344-4.219 12.656-5.625 4.219-1.5 8.485-2.907 12.797-4.219 4.313-1.406 6.891-5.625 7.734-12.656.938-7.125 1.407-34.547 1.407-82.266 0-47.813-.75-72.89-2.25-75.234-1.5-2.438-3.61-3.704-6.328-3.797-2.625-.188-7.313 1.078-14.063 3.797-6.844 2.625-13.734 4.687-20.672 6.187-6.937 1.406-23.578 3.469-49.922 6.188h-.843zm67.5 0c26.625-3.563 43.406-6.282 50.343-8.157 6.938-1.968 14.11-4.5 21.516-7.593 7.406-3.094 15.844-6.188 25.312-9.282 9.469-3.187 17.157-5.859 23.063-8.015 5.906-2.25 14.156-2.766 24.75-1.547-11.531 1.781-18.844 3.469-21.937 5.062-3.094 1.594-4.922 3.891-5.485 6.891-.562 3-.797 32.672-.703 89.016.188 56.25 1.219 85.359 3.094 87.328 1.968 1.875 3.984 3 6.047 3.375 2.062.281 4.171 0 6.328-.844 2.25-.938 4.5-2.203 6.75-3.797 2.25-1.687 4.969-3.422 8.156-5.203l-7.031 21.375a115.967 115.967 0 0 0-18.844-2.953c-6.375-.469-12.328-.891-17.859-1.266-5.438-.468-12.516-.234-21.235.703-8.718.844-15.937 2.719-21.656 5.625-5.812 3-14.484 9.375-26.016 19.125 12.375-12.375 20.672-19.781 24.891-22.218 4.125-2.344 8.344-4.219 12.656-5.625 4.219-1.5 8.485-2.907 12.797-4.219 4.313-1.406 6.891-5.625 7.734-12.656.938-7.125 1.407-34.547 1.407-82.266 0-47.813-.75-72.89-2.25-75.234-1.5-2.438-3.61-3.704-6.328-3.797-2.625-.188-7.313 1.078-14.063 3.797-6.844 2.625-13.734 4.687-20.672 6.187-6.937 1.406-23.578 3.469-49.922 6.188h-.843zm29.25 50.484c16.593 7.5 31.875 11.766 45.843 12.797 13.875 1.031 25.641-.469 35.297-4.5 9.563-4.031 18.516-8.063 26.86-12.094 8.25-4.125 18.937-7.172 32.062-9.141 13.219-1.968 26.625-.703 40.219 3.797-9.094 4.5-12.75 9.188-10.969 14.063 1.781 4.781 14.016 30.14 36.703 76.078l30.375-73.547c.469-6.562-.328-11.109-2.39-13.641-1.969-2.531-4.875-3.796-8.719-3.796-3.75 0-8.156 1.687-13.219 5.062-4.969 3.281-9.234 8.672-12.797 16.172 1.5-9.094 4.406-15.516 8.719-19.266 4.313-3.75 9.094-6.234 14.344-7.453 5.343-1.312 10.125-1.453 14.343-.422 4.313.938 10.5 1.547 18.563 1.829 8.156.281 16.875-.469 26.156-2.25 9.375-1.782 21.657-10.266 36.844-25.454-10.125 11.625-17.859 19.219-23.203 22.782-5.25 3.562-11.063 6.093-17.438 7.593-6.281 1.5-11.343 3-15.187 4.5-3.75 1.5-6.75 3.797-9 6.891-2.25 3-24.235 53.484-65.953 151.453-9.563 14.906-20.25 22.735-32.063 23.485-11.719.843-20.719-.985-27-5.485-6.281-4.406-11.203-9.891-14.765-16.453-3.563-6.562-5.204-13.078-4.922-19.547.281-6.375 2.672-12 7.172-16.875 4.5-4.781 9.422-6.844 14.765-6.187 5.344.656 9.281 2.25 11.813 4.781 2.531 2.531 3.89 5.297 4.078 8.297.281 3-.328 5.765-1.828 8.297-1.5 2.531-3.516 4.312-6.047 5.343-2.531 1.032-4.547 1.172-6.047.422s-3.422-2.39-5.766-4.922c-2.25-2.531-2.625-6.843-1.125-12.937-6 2.531-9.375 6.422-10.125 11.672-.75 5.344.563 10.594 3.938 15.75 3.375 5.25 7.266 8.953 11.672 11.109 4.406 2.156 9.515 3.141 15.328 2.953 5.812-.094 12.328-2.437 19.547-7.031 7.219-4.594 16.64-21.375 28.265-50.344-33.562-67.219-52.125-102.093-55.687-104.625-3.563-2.531-6.891-3.515-9.985-2.953-3 .469-7.64 1.828-13.921 4.078-6.282 2.25-14.953 5.531-26.016 9.844-11.156 4.313-20.25 6.609-27.281 6.891-7.125.187-13.828-.469-20.11-1.969a942.556 942.556 0 0 1-16.734-4.078c-4.781-1.313-13.266-4.969-25.453-10.969h.844zm188.015 12.234c14.344-12.093 25.641-19.125 33.891-21.093 8.25-2.063 16.359-3.094 24.328-3.094 7.875 0 17.437.047 28.687.141 11.25.093 20.016-1.594 26.297-5.063 6.375-3.563 11.063-8.109 14.063-13.641-3.281 6.563-6.141 10.875-8.578 12.938a166.777 166.777 0 0 1-7.875 6.187 1001.376 1001.376 0 0 1-7.453 5.485c-1.969 1.5-2.719 4.172-2.25 8.015.562 3.75 10.312 31.125 29.25 82.125l28.406-60.187c-8.625-18.75-13.828-28.547-15.61-29.391-1.687-.937-3.796-1.594-6.328-1.968-2.531-.376-4.64-.047-6.328.984-1.594 1.031-3.094 2.625-4.5 4.781-1.406 2.156-2.484 5.766-3.234 10.828-.563-6.093-.234-10.5.984-13.219 1.313-2.812 3.938-5.109 7.875-6.89a29.7 29.7 0 0 1 12.375-2.672c4.313 0 8.719.141 13.219.422a353 353 0 0 0 14.344.281c5.062 0 9.047-.422 11.953-1.265 2.906-.938 6.14-2.532 9.703-4.782-5.813 6.094-9.469 9.656-10.969 10.688a28.602 28.602 0 0 0-4.359 3.375c-1.406 1.219-2.203 3.093-2.391 5.625-.094 2.531.235 5.25.985 8.156.843 2.906 10.359 26.578 28.547 71.016l30.234-76.078c0-4.782-.563-7.876-1.688-9.282-1.125-1.406-2.906-2.203-5.343-2.39-2.344-.282-4.219.422-5.625 2.109-1.407 1.594-3.328 3.469-5.766 5.625-2.344 2.062-4.922 3.516-7.734 4.359-2.719.75-8.016.985-15.891.703 8.063-1.312 13.078-2.531 15.047-3.656 2.062-1.125 3.797-2.672 5.203-4.64 1.406-2.063 3.422-4.219 6.047-6.469 2.719-2.25 6-4.125 9.844-5.625 3.937-1.594 8.296-2.625 13.078-3.094 4.875-.562 8.531-.75 10.968-.562 2.532.093 5.391.656 8.579 1.687 3.187 1.031 5.906 2.953 8.156 5.766 2.25 2.719 3.375 5.203 3.375 7.453s-.328 5.109-.984 8.578c-.563 3.375-2.11 5.625-4.641 6.75s-5.016 1.312-7.453.562c-2.344-.75-4.406-3-6.188-6.75 2.532 1.969 4.735 3.188 6.61 3.657 1.875.375 3.75 0 5.625-1.125 1.968-1.219 3.14-3 3.515-5.344.375-2.438.188-4.359-.562-5.766-.75-1.406-2.156-2.484-4.219-3.234s-4.219-.984-6.469-.703-4.594 1.359-7.031 3.234c-2.344 1.875-4.734 5.531-7.172 10.969-2.344 5.438-16.781 42.75-43.312 111.938-2.532 7.312-4.453 12.281-5.766 14.906-1.219 2.718-3.937 5.531-8.156 8.437-4.125 2.907-8.719 4.594-13.781 5.063 4.781-2.25 9-4.688 12.656-7.313 3.656-2.625 5.812-5.156 6.468-7.593.657-2.438 1.219-5.344 1.688-8.719.562-3.375-9.938-32.766-31.5-88.172l-37.125 81.984c-3.469 9.281-6.469 15.375-9 18.281-2.531 2.907-5.156 5.297-7.875 7.172-2.625 1.969-6.797 3.797-12.516 5.485-5.625 1.781-10.453 3.047-14.484 3.797 5.062-2.25 9.844-4.219 14.344-5.907 4.594-1.593 8.156-3.656 10.687-6.187 2.531-2.531 4.641-5.016 6.328-7.453 1.782-2.344 3.047-6.047 3.797-11.11.844-5.062-12-42.703-38.531-112.921-2.531-5.063-7.406-8.86-14.625-11.391-7.219-2.531-11.812-3.985-13.781-4.359-2.063-.376-7.172.328-15.328 2.109-8.25 1.781-19.829 7.734-34.735 17.859v-.422zm375.614-25.453c-.47-.187.04-.562 1.54-1.125 1.6-.562 3.33-1.828 5.21-3.797 1.87-2.062 4.36-4.078 7.45-6.047 3.09-1.968 6.33-3.187 9.7-3.656 3.38-.468 6.71-.187 9.99.844 3.37.938 6.7 3.75 9.98 8.438-2.16-2.813-4.83-4.735-8.02-5.766-3.09-1.031-6.51-1.078-10.26-.141-3.75.844-6.84 2.391-9.28 4.641-2.44 2.156-5.44 6.234-9 12.234 1.69 2.063 4.22 5.86 7.59 11.391 3.38 5.531 5.81 13.219 7.31 23.062 1.6 9.844 1.88 18.75.85 26.719-1.03 7.969-3.14 15.422-6.33 22.36-3.19 6.843-6.89 12.937-11.11 18.281-4.22 5.25-8.11 9.281-11.67 12.093-3.56 2.813-7.88 5.297-12.94 7.454-4.97 2.062-10.5 3.468-16.59 4.218-6.1.844-12.471.797-19.128-.14-6.562-.844-12.984-2.485-19.265-4.922-6.188-2.438-11.859-5.86-17.016-10.266-5.062-4.5-9.609-9.609-13.64-15.328-3.938-5.812-6.75-12.656-8.438-20.531-1.687-7.875-2.297-14.859-1.828-20.953.469-6.094 1.313-11.203 2.531-15.328 1.219-4.125 3.235-8.766 6.047-13.922 2.906-5.25 5.016-8.532 6.328-9.844 1.407-1.406 3.141-3.234 5.203-5.484 2.157-2.344 4.688-4.547 7.594-6.61 2.906-2.156 5.438-3.937 7.594-5.344 2.25-1.5 4.781-2.578 7.594-3.234 2.906-.656 5.672-.984 8.296-.984 2.719 0 5.344.562 7.876 1.687 2.531 1.125 4.5 3.75 5.906 7.875-1.782-2.812-4.125-4.64-7.032-5.484-2.906-.938-6.046-1.078-9.421-.422-3.282.656-5.953 1.875-8.016 3.656-1.969 1.782-4.078 4.078-6.328 6.891-2.156 2.719-3.844 5.484-5.063 8.297-1.218 2.718-2.343 6.515-3.375 11.39-.937 4.875-1.593 10.782-1.968 17.719-.282 6.844-.141 13.219.421 19.125.563 5.813 1.829 12.281 3.797 19.406 1.969 7.125 4.688 13.125 8.157 18 3.468 4.875 7.5 8.766 12.093 11.672 4.688 2.906 9.797 4.969 15.329 6.188 5.531 1.125 10.832 1.125 15.892 0 5.15-1.219 9.89-3.516 14.2-6.891 4.41-3.375 8.49-8.109 12.24-14.203 3.75-6.094 6-10.922 6.75-14.484.84-3.563 1.64-7.594 2.39-12.094.75-4.594 1.17-9.656 1.26-15.188.19-5.531-.14-11.39-.98-17.578-.75-6.187-2.25-13.922-4.5-23.203l1.69-3.797c-2.35 2.532-4.22 4.172-5.63 4.922-1.31.75-2.86-.14-4.64-2.672-1.78-2.531-2.67-5.297-2.67-8.297 0-3-1.32-5.953-3.94-8.859-2.53-2.906-5.81-5.297-9.84-7.172-3.94-1.875-8.77-2.953-14.488-3.234-5.625-.375-10.594-.422-14.906-.141-4.313.188-9.61 1.266-15.891 3.235-6.187 1.968-11.109 4.265-14.766 6.89-3.562 2.531-6.281 4.688-8.156 6.469-1.781 1.687-3.937 4.125-6.469 7.312-2.531 3.094-6.328 9.844-11.39 20.25 1.968-9.093 4.781-16.406 8.437-21.937 3.657-5.531 7.875-10.36 12.657-14.484 4.781-4.126 9.703-7.313 14.765-9.563 5.063-2.25 10.688-3.891 16.875-4.922 6.281-1.125 13.125-1.5 20.532-1.125 7.5.281 14.48 1.594 20.95 3.938 6.57 2.343 13.55 6.515 20.96 12.515zm145.96 0c-.46-.187.05-.562 1.55-1.125 1.6-.562 3.33-1.828 5.2-3.797 1.88-2.062 4.36-4.078 7.46-6.047 3.09-1.968 6.33-3.187 9.7-3.656 3.38-.468 6.7-.187 9.98.844 3.38.938 6.71 3.75 9.99 8.438-2.16-2.813-4.83-4.735-8.02-5.766-3.09-1.031-6.51-1.078-10.26-.141-3.75.844-6.85 2.391-9.28 4.641-2.44 2.156-5.44 6.234-9 12.234 1.68 2.063 4.22 5.86 7.59 11.391 3.38 5.531 5.81 13.219 7.31 23.062 1.6 9.844 1.88 18.75.85 26.719-1.03 7.969-3.14 15.422-6.33 22.36-3.19 6.843-6.89 12.937-11.11 18.281-4.22 5.25-8.11 9.281-11.67 12.093-3.57 2.813-7.88 5.297-12.94 7.454-4.97 2.062-10.5 3.468-16.59 4.218-6.1.844-12.47.797-19.13-.14-6.56-.844-12.98-2.485-19.26-4.922-6.19-2.438-11.86-5.86-17.02-10.266-5.06-4.5-9.61-9.609-13.64-15.328-3.94-5.812-6.75-12.656-8.44-20.531-1.69-7.875-2.29-14.859-1.83-20.953.47-6.094 1.32-11.203 2.54-15.328 1.21-4.125 3.23-8.766 6.04-13.922 2.91-5.25 5.02-8.532 6.33-9.844 1.41-1.406 3.14-3.234 5.2-5.484 2.16-2.344 4.69-4.547 7.6-6.61 2.9-2.156 5.43-3.937 7.59-5.344 2.25-1.5 4.78-2.578 7.59-3.234 2.91-.656 5.68-.984 8.3-.984 2.72 0 5.35.562 7.88 1.687 2.53 1.125 4.5 3.75 5.9 7.875-1.78-2.812-4.12-4.64-7.03-5.484-2.9-.938-6.05-1.078-9.42-.422-3.28.656-5.95 1.875-8.02 3.656-1.96 1.782-4.07 4.078-6.32 6.891-2.16 2.719-3.85 5.484-5.07 8.297-1.22 2.718-2.34 6.515-3.37 11.39-.94 4.875-1.6 10.782-1.97 17.719-.28 6.844-.14 13.219.42 19.125.56 5.813 1.83 12.281 3.8 19.406 1.97 7.125 4.69 13.125 8.15 18 3.47 4.875 7.5 8.766 12.1 11.672 4.69 2.906 9.8 4.969 15.33 6.188 5.53 1.125 10.82 1.125 15.89 0 5.15-1.219 9.89-3.516 14.2-6.891 4.41-3.375 8.48-8.109 12.23-14.203 3.75-6.094 6-10.922 6.75-14.484.85-3.563 1.64-7.594 2.4-12.094.74-4.594 1.17-9.656 1.26-15.188.19-5.531-.14-11.39-.98-17.578-.75-6.187-2.25-13.922-4.5-23.203l1.68-3.797c-2.34 2.532-4.22 4.172-5.62 4.922-1.31.75-2.86-.14-4.64-2.672-1.78-2.531-2.67-5.297-2.67-8.297 0-3-1.32-5.953-3.94-8.859-2.53-2.906-5.81-5.297-9.85-7.172-3.93-1.875-8.76-2.953-14.48-3.234-5.62-.375-10.59-.422-14.91-.141-4.31.188-9.61 1.266-15.89 3.235-6.18 1.968-11.11 4.265-14.76 6.89-3.56 2.531-6.28 4.688-8.16 6.469-1.78 1.687-3.94 4.125-6.47 7.312-2.53 3.094-6.33 9.844-11.39 20.25 1.97-9.093 4.78-16.406 8.44-21.937 3.66-5.531 7.88-10.36 12.66-14.484 4.78-4.126 9.7-7.313 14.76-9.563 5.06-2.25 10.69-3.891 16.88-4.922 6.28-1.125 13.12-1.5 20.53-1.125 7.5.281 14.48 1.594 20.95 3.938 6.56 2.343 13.55 6.515 20.95 12.515zm123.61 103.641v-66.375c-.56-6.375-2.25-12.188-5.06-17.438-2.81-5.25-6.56-9.187-11.25-11.812-4.59-2.719-9.09-4.078-13.5-4.078-8.25 0-15.61 3.703-22.08 11.109-8.53 9.75-12.79 24-12.79 42.75 0 18.938 4.12 33.469 12.37 43.594 8.25 10.031 17.44 15.047 27.56 15.047 8.53 0 16.79-4.266 24.75-12.797zm-122.2-150.89c9 1.03 20.39 1.687 34.17 1.968 13.78.188 27.94-1.031 42.47-3.656 14.63-2.625 27.75-6.328 39.38-11.11 11.62-4.78 28.31-12.75 50.06-23.906-11.63 10.125-18 18.375-19.13 24.75-1.03 6.375-1.82 34.453-2.39 84.234-.47 49.782.61 76.547 3.24 80.297 2.62 3.657 7.78 4.829 15.47 3.516 7.68-1.313 16.03-4.734 25.03-10.266 9.09-5.625 20.62-9.75 34.59-12.375 14.06-2.625 29.86-2.859 47.39-.703-18.56.469-34.36 2.157-47.39 5.063-12.94 2.906-24.61 7.547-35.01 13.922-10.32 6.375-20.25 12.093-29.82 17.156-9.47 4.969-24.28 9.609-44.43 13.922 4.21-5.344 7.12-12.516 8.71-21.516-11.62 9-20.76 14.438-27.42 16.313-6.56 1.875-13.97 2.015-22.22.421-8.25-1.593-15.04-5.156-20.39-10.687-5.25-5.625-9.98-12.656-14.2-21.094-4.22-8.531-6.33-19.125-6.33-31.781 0-12.75 2.11-23.484 6.33-32.203 4.22-8.813 8.95-16.359 14.2-22.641 5.35-6.375 12.38-10.875 21.1-13.5 8.81-2.718 17.06-3.656 24.75-2.812 7.68.75 16.31 5.109 25.87 13.078l-1.69-25.453-.7-30.938c-4.78-3.187-9.98-4.125-15.61-2.812-5.53 1.312-13.59 3.047-24.19 5.203-10.59 2.062-19.87 3.234-27.84 3.516-7.97.28-15.8.28-23.48 0-7.69-.282-14.68-1.22-20.96-2.813-6.37-1.594-9.56-2.625-9.56-3.094zm167.91 7.874c6.75-5.625 13.92-9.75 21.51-12.375 7.6-2.719 15.14-4.922 22.64-6.61 7.5-1.687 16.46-2.718 26.86-3.093 10.5-.469 21-.703 31.5-.703 10.6 0 19.27-.422 26.02-1.266 6.84-.843 13.92-2.25 21.23-4.218 7.31-1.97 11.96-4.454 13.92-7.454 1.97-3 3-6.046 3.1-9.14.19-3.094-1.27-6.469-4.36-10.125 3.94 3.656 6.05 7.312 6.33 10.969.28 3.656-.66 7.125-2.82 10.406-2.06 3.281-7.12 6.281-15.18 9-7.97 2.625-14.16 4.64-18.57 6.047-4.4 1.406-6.75 3.094-7.03 5.062-.28 1.969.42 5.063 2.11 9.281l60.61 128.672c43.13-92.812 64.88-139.968 65.25-141.468.47-1.594.19-3.094-.84-4.5-.94-1.407-2.39-2.297-4.36-2.672-1.97-.469-4.17-.469-6.61 0-2.44.375-5.02 1.219-7.74 2.531-2.62 1.219-7.45 3.89-14.48 8.016-7.03 4.03-12.8 6.421-17.3 7.171-4.5.657-9.61 1.126-15.32 1.407-5.63.281-15.9-2.11-30.8-7.172 15.19 3.656 25.55 5.344 31.08 5.062 5.53-.28 10.45-1.125 14.76-2.53 4.41-1.407 10.27-3.985 17.58-7.735 7.31-3.844 12.24-6.656 14.77-8.438 2.53-1.875 6.89-3.656 13.07-5.344 6.29-1.687 11.16-2.437 14.63-2.25 3.56.094 7.08.141 10.55.141 3.56 0 8.72.656 15.46 1.969 6.85 1.219 11.82 3.094 14.91 5.625s5.63 5.344 7.59 8.437c1.97 3.094 2.96 5.72 2.96 7.875 0 2.063-.24 4.36-.7 6.891-.38 2.531-1.5 4.734-3.38 6.61-1.78 1.78-4.78 2.531-9 2.25 4.22-1.407 6.89-2.86 8.02-4.36a9.898 9.898 0 0 0 1.82-5.344c.19-1.969.14-3.984-.14-6.047-.28-2.156-1.64-4.125-4.08-5.906-2.34-1.875-4.87-2.719-7.59-2.531-2.62.094-5.11.937-7.45 2.531-2.25 1.5-4.03 4.172-5.35 8.016-1.21 3.75-1.82 9.984-1.82 18.703l.42 135c1.4 5.062 3.05 8.437 4.92 10.125 1.87 1.687 4.13 2.953 6.75 3.797 2.72.843 4.97.984 6.75.422 1.87-.563 3.94-1.594 6.19-3.094 2.25-1.594 4.64-3.235 7.17-4.922l-2.11 15.328H1637.12c-6.93 0-16.5.047-28.68.141-12.1.187-22.5.844-31.22 1.968-8.72 1.126-17.3 3.376-25.74 6.75 8.16-4.218 16.5-7.265 25.04-9.14 8.62-1.875 14.9-3.141 18.84-3.797 4.03-.75 7.78-1.969 11.25-3.656 3.56-1.688 5.91-3.797 7.03-6.328 1.13-2.532 1.74-5.672 1.83-9.422.19-3.844 0-50.203-.56-139.078l-75.8 165.937c-3.66 5.625-6.56 9.563-8.72 11.813-2.06 2.25-6.19 5.203-12.37 8.859l7.59-7.172 5.48-7.172 2.53-12.375-2.1-10.547-68.49-148.922c-.28 91.688-.37 138.61-.28 140.766.19 2.063.84 4.313 1.97 6.75 1.12 2.344 2.58 4.031 4.36 5.063 1.87.937 3.84 1.828 5.9 2.671 2.16.844 4.27 1.219 6.33 1.126 2.16-.188 4.27-.891 6.33-2.11 2.16-1.312 3.52-3.375 4.08-6.187.56-2.813.56-5.344 0-7.594s-2.53-4.641-5.91-7.172c3.66 1.687 6.05 3.891 7.17 6.609 1.13 2.625 1.41 5.485.85 8.578-.56 3.094-1.83 5.579-3.8 7.454-1.97 1.781-3.65 3.046-5.06 3.796-1.41.657-3.75 1.172-7.03 1.547-3.19.282-6.56.422-10.13.422-3.47 0-11.58.047-24.33.141-12.65.187-22.68.984-30.09 2.39-7.5 1.407-14.48 3.235-20.95 5.485-6.56 2.25-14.49 6.609-23.77 13.078 8.16-7.313 15.42-12.328 21.8-15.047 6.37-2.625 12.61-4.781 18.7-6.469 6-1.781 11.53-3.14 16.6-4.078 5.06-1.031 9.7-2.25 13.92-3.656 4.31-1.406 7.03-3.703 8.15-6.891 1.13-3.281 1.88-7.172 2.25-11.672.47-4.5.71-51.187.71-140.062-.57-7.594-2.91-12.375-7.03-14.344-4.13-1.969-8.82-3.234-14.07-3.797-5.15-.562-11.15-.562-18 0-6.93.563-13.78 1.782-20.53 3.657-6.84 1.78-12.56 3.75-17.15 5.906-4.69 2.062-9.71 4.64-15.05 7.734h-.42zm220.07 120.938c23.63-12.375 40.97-20.25 52.04-23.625 11.06-3.375 24.46-6.375 40.22-9 2.24-6.375 3.84-11.813 4.78-16.313.93-4.5 3.75-9.937 8.43-16.312 4.69-6.375 11.72-11.532 21.1-15.469 9.37-3.937 19.31-5.437 29.81-4.5 10.5.937 18.28 3.094 23.34 6.469 5.07 3.375 9.19 8.625 12.38 15.75 3.19 7.125 5.34 16.312 6.47 27.562l-88.88 10.688c0 11.25 1.03 19.968 3.1 26.156 2.06 6.188 5.06 11.344 9 15.469 3.93 4.125 9 7.219 15.18 9.281 6.19 2.062 13.41 2.531 21.66 1.406 8.25-1.125 14.34-3 18.28-5.625 3.94-2.625 6.94-5.531 9-8.719 2.06-3.187 3.56-6.562 4.5-10.124.94-3.563 3.28-5.907 7.03-7.032 3.75-1.125 7.78-1.875 12.1-2.25 4.31-.375 8.15-.094 11.53.844 3.37.938 8.43 4.781 15.19 11.531-7.88-5.25-14.16-8.062-18.85-8.437-4.69-.375-8.91.468-12.65 2.531-3.76 2.063-7.22 6.375-10.41 12.937a165.03 165.03 0 0 0-8.16 19.969c-2.25 6.75-4.69 13.5-7.31 20.25-2.62 6.75-5.91 12.938-9.84 18.563a70.677 70.677 0 0 1-14.07 14.906c-5.43 4.312-12.56 7.875-21.37 10.688-8.81 2.812-19.78 5.156-32.91 7.031 11.25-3 22.13-6.844 32.63-11.531 10.5-4.688 18.28-10.407 23.34-17.157 5.06-6.75 8.53-12 10.41-15.75 1.87-3.75 1.78-6.75-.28-9-2.07-2.25-4.69-2.812-7.88-1.687-3.19 1.125-9.84.844-19.97-.844-10.12-1.688-17.9-4.406-23.34-8.156-5.44-3.75-10.31-10.313-14.63-19.688-4.31-9.375-7.4-24-9.28-43.875-14.62 1.125-27.28 2.719-37.97 4.781-10.68 2.063-28.59 8.157-53.72 18.282zm109.13-37.125l63-10.125c-.37-4.5-1.69-8.532-3.94-12.094-2.25-3.562-7.12-6.094-14.62-7.594-7.5-1.5-14.35-1.031-20.53 1.406-6.19 2.438-10.5 5.063-12.94 7.876-2.44 2.812-5.91 9.468-10.41 19.968l-.56.563zm78.75 27.562c-4.59-3.281-7.45-7.875-8.58-13.781-1.22-5.906-.94-12.609.85-20.109 1.78-7.594 4.54-14.157 8.29-19.688 3.66-5.531 7.13-9.422 10.41-11.672 3.19-2.343 8.48-5.531 15.89-9.562 7.41-4.125 12.52-8.297 15.33-12.516a66.448 66.448 0 0 0 6.89-13.922c1.87-4.969 2.86-9.515 2.95-13.64.09-4.125-.84-7.97-2.81-11.532-1.88-3.562-4.5-5.906-7.88-7.03-3.28-1.22-7.07-1.173-11.39.14 5.63-2.344 9.99-3.047 13.08-2.11 3.09.844 5.25 1.97 6.47 3.375 1.31 1.407 2.48 3.235 3.52 5.485 1.03 2.156 1.87 5.25 2.53 9.281.65 3.938.98 7.875.98 11.813v33.187c11.53-.188 19.13-.844 22.78-1.969 3.75-1.219 8.07-3.984 12.94-8.297l-6.89 21.797c-5.44-1.5-9.38-2.25-11.81-2.25-2.44 0-5.07-.047-7.88-.14-2.81-.188-5.01-.282-6.61-.282-1.5 0-2.25.891-2.25 2.672-.47 54.563-.19 84.61.85 90.141 1.03 5.531 2.86 8.953 5.48 10.266 2.72 1.312 5.72 1.593 9 .843 3.38-.843 6.14-2.484 8.3-4.922 2.25-2.437 5.06-5.062 8.44-7.875 3.46-2.812 7.64-5.015 12.51-6.609 4.88-1.687 10.13-2.672 15.75-2.953 5.72-.281 10.27.422 13.64 2.109 3.47 1.688 7.27 4.453 11.39 8.297-5.34-3.094-9.94-5.156-13.78-6.187-3.84-1.032-7.78-1.36-11.81-.985-3.94.375-7.64 1.172-11.11 2.391-3.47 1.125-6.56 2.672-9.28 4.641-2.63 1.874-4.92 4.406-6.89 7.593-1.88 3.188-4.36 6.469-7.46 9.844-3.09 3.281-6.84 6.094-11.25 8.437-4.31 2.25-8.67 3.376-13.07 3.376-4.32 0-8.02-.938-11.11-2.813-3-1.969-5.68-5.391-8.02-10.266s-3.75-9.843-4.22-14.906c-.47-5.156-.47-35.906 0-92.25-5.62-.562-10.31-.328-14.06.703-3.75 1.032-7.5 3.047-11.25 6.047-3.84 2.906-6.33 5.391-7.45 7.453-1.22 1.969-2.86 5.203-4.93 9.703-2.06 4.5-3.28 8.813-3.65 12.938-.38 4.125-.38 7.594 0 10.406.37 2.813 1.17 5.578 2.39 8.297 1.12 2.625 2.72 4.969 4.78 7.031zm260.02 19.547c-7.22.563-14.21 1.594-20.96 3.094-6.65 1.5-11.9 3.234-15.75 5.203a55.035 55.035 0 0 0-10.54 6.891 334.843 334.843 0 0 0-10.13 8.437c-3.37 3-6.61 5.531-9.7 7.594-3.1 1.969-6.1 3.656-9 5.062-2.91 1.407-6 2.391-9.28 2.953-3.28.657-6.05-.281-8.3-2.812-2.16-2.531-3.42-7.688-3.8-15.469-4.68-1.781-8.34-1.781-10.97 0-2.53 1.781-5.01 3.891-7.45 6.328-2.34 2.438-5.16 4.453-8.44 6.047-3.18 1.594-6.7 2.766-10.54 3.516-3.75.844-8.63.375-14.63-1.406-6-1.875-10.59-4.735-13.78-8.578-3.19-3.938-5.25-8.344-6.19-13.219-.94-4.875-.94-9.563 0-14.063.94-4.594 2.58-8.625 4.92-12.094 2.44-3.468 5.35-6.89 8.72-10.265 3.47-3.469 7.27-6.094 11.39-7.875 4.22-1.781 8.86-3.188 13.93-4.219 5.15-1.031 9.93-1.265 14.34-.703 4.41.469 7.69 1.359 9.84 2.672 2.25 1.312 3.8 3.234 4.64 5.766.94 2.437 1.32 4.921 1.13 7.453-.19 2.531-1.08 4.734-2.67 6.609-1.6 1.875-3.75 2.812-6.47 2.812-2.72 0-4.78-.703-6.19-2.109-1.41-1.406-2.11-3.703-2.11-6.891 1.41 3.188 3 5.157 4.78 5.907 1.88.656 3.66.656 5.35 0 1.68-.75 2.76-2.391 3.23-4.922.56-2.625.42-4.828-.42-6.609-.75-1.876-2.44-3.376-5.06-4.5-2.63-1.219-6.05-1.735-10.27-1.547-4.22.187-7.78 1.031-10.69 2.531-2.81 1.5-5.48 3.375-8.01 5.625-2.53 2.156-4.55 4.828-6.05 8.015-1.5 3.188-2.16 7.547-1.97 13.079.19 5.531 1.36 10.031 3.52 13.5 2.25 3.468 4.83 5.953 7.73 7.453 2.91 1.5 5.86 2.25 8.86 2.25 3 0 5.72-.891 8.16-2.672 2.53-1.781 4.92-3.094 7.17-3.938 2.34-.937 4.03-1.64 5.06-2.109 1.03-.563 4.17-1.031 9.42-1.406.19-46.219.05-71.438-.42-75.657-.37-4.218-1.4-8.109-3.09-11.671-1.69-3.657-4.83-6.797-9.42-9.422-4.6-2.719-8.39-4.125-11.39-4.219-3-.094-6.24.656-9.71 2.25-3.37 1.594-5.48 3.516-6.33 5.766a39.016 39.016 0 0 0-1.68 6.75c-.38 2.25-.28 4.078.28 5.484.56 1.406 1.54 2.484 2.95 3.234 1.41.657 3.42.282 6.05-1.125-1.6 0-2.96-.375-4.08-1.125-1.12-.843-1.59-2.109-1.41-3.796.29-1.782 1.13-3.188 2.53-4.219 1.41-1.125 3.15-1.453 5.21-.985 2.06.469 3.61 1.735 4.64 3.797 1.03 1.969 1.55 4.172 1.55 6.61 0 2.343-.43 4.265-1.27 5.765-.75 1.5-2.2 3.094-4.36 4.782-2.06 1.593-4.55 2.624-7.45 3.093-2.91.469-5.72.516-8.44.141-2.72-.375-5.25-1.641-7.59-3.797-2.25-2.25-3.89-4.781-4.93-7.594-.93-2.812-1.4-5.437-1.4-7.875 0-2.531.33-5.203.98-8.015.75-2.813 2.11-5.391 4.08-7.735 2.06-2.437 4.64-4.453 7.74-6.047 3.09-1.687 6-2.812 8.71-3.375 2.82-.562 5.68-.89 8.58-.984 2.91-.094 6.52.094 10.83.562 4.31.469 8.53 1.313 12.66 2.532 4.12 1.218 7.96 3 11.53 5.344 3.56 2.25 6.7 5.156 9.42 8.718 2.72 3.469 4.55 6.656 5.48 9.563 1.03 2.812 1.69 6.14 1.97 9.984.38 3.844.47 9.516.28 17.016-.18 7.5-.14 18.656.14 33.469.29 14.812 1.04 23.578 2.25 26.296 1.22 2.625 3.33 4.125 6.33 4.5 3 .282 5.77-.234 8.3-1.546 2.62-1.313 5.34-3.047 8.16-5.204 2.81-2.25 5.67-4.172 8.57-5.765 2.91-1.594 6.99-3 12.24-4.219 5.34-1.219 9.84-2.016 13.5-2.391 3.75-.375 8.9-.375 15.47 0l-.28-.281zM1881.39 95.766c26.63-3.563 43.41-6.282 50.34-8.157 6.94-1.968 14.11-4.5 21.52-7.593 7.41-3.094 15.84-6.188 25.31-9.282 9.47-3.187 17.16-5.859 23.06-8.015 5.91-2.25 14.16-2.766 24.76-1.547-11.54 1.781-18.85 3.469-21.94 5.062-3.1 1.594-4.92 3.891-5.49 6.891-.56 3-.79 32.672-.7 89.016.19 56.25 1.22 85.359 3.09 87.328 1.97 1.875 3.99 3 6.05 3.375 2.06.281 4.17 0 6.33-.844 2.25-.938 4.5-2.203 6.75-3.797 2.25-1.687 4.97-3.422 8.15-5.203l-7.03 21.375c-6.18-1.5-12.47-2.484-18.84-2.953-6.37-.469-12.33-.891-17.86-1.266-5.44-.468-12.51-.234-21.23.703-8.72.844-15.94 2.719-21.66 5.625-5.81 3-14.48 9.375-26.02 19.125 12.38-12.375 20.68-19.781 24.9-22.218 4.12-2.344 8.34-4.219 12.65-5.625 4.22-1.5 8.49-2.907 12.8-4.219 4.31-1.406 6.89-5.625 7.73-12.656.94-7.125 1.41-34.547 1.41-82.266 0-47.813-.75-72.89-2.25-75.234-1.5-2.438-3.61-3.704-6.33-3.797-2.62-.188-7.31 1.078-14.06 3.797-6.85 2.625-13.74 4.687-20.67 6.187-6.94 1.406-23.58 3.469-49.93 6.188h-.84zM268.912 402.656l.216-3.096c-2.592-.288-4.224-.672-4.896-1.152-1.2-.864-1.728-5.304-1.584-13.32l.432-16.992c.096-2.832.192-5.112.288-6.84.096-1.776.264-3.048.504-3.816.096-.096-.936-.96-3.096-2.592l.072-.072 3.024.36c2.112.144 3.336.192 3.672.144l1.584-.432-.504-2.664a39.4 39.4 0 0 0-2.088.072c-.816 0-1.776.024-2.88.072-2.16.144-3.84.216-5.04.216-1.392 0-3-.072-4.824-.216a221.383 221.383 0 0 1-5.976-.576l-.504 3.096c1.488.24 2.688.48 3.6.72.912.192 1.56.36 1.944.504.528.192.888.576 1.08 1.152.528 1.248.768 4.608.72 10.08l-.072 6.984c-.24 0-.48-.096-.72-.288-.24-.192-.48-.288-.72-.288-1.536-.432-3.48-.648-5.832-.648-2.736 0-6.768.36-12.096 1.08-2.64.336-4.968.6-6.984.792-1.968.144-3.624.216-4.968.216-3.648 0-6.168-.6-7.56-1.8v-3.888c0-8.16.624-12.528 1.872-13.104a52.024 52.024 0 0 1 3.24-.576 42.434 42.434 0 0 1 2.88-.432c-.048-.528-.096-1.032-.144-1.512v-1.512l-7.56.144c-.528 0-1.2-.024-2.016-.072-.768-.048-1.68-.096-2.736-.144-2.16-.144-3.744-.216-4.752-.216-.672 0-1.464.048-2.376.144-.864.048-1.872.168-3.024.36l-.288 2.952c1.248.048 2.28.12 3.096.216.864.048 1.488.192 1.872.432.576.336 1.008 1.08 1.296 2.232.24 1.248.384 2.664.432 4.248.096 1.584.12 3.384.072 5.4-.048 2.4-.096 4.416-.144 6.048a137.372 137.372 0 0 1-.144 3.6c-.096 6.384-.288 11.256-.576 14.616-.24 3.36-.504 5.232-.792 5.616-.336.336-1.344.648-3.024.936-.384.048-.888.12-1.512.216-.576.048-1.248.12-2.016.216l1.44 3.096c2.448-.096 4.416-.192 5.904-.288 1.488-.096 2.52-.12 3.096-.072l12.672.576.288-2.952c-3.648-.672-5.76-1.224-6.336-1.656-.624-.624-.936-2.976-.936-7.056 0-5.184.072-9.192.216-12.024 1.584 1.824 5.568 2.736 11.952 2.736 2.064 0 4.392-.096 6.984-.288 2.592-.24 5.496-.552 8.712-.936 4.704-.576 7.752-.936 9.144-1.08l1.944.144.144 3.528c.048 6.384-.216 10.92-.792 13.608-.288 1.008-1.152 1.728-2.592 2.16-.24.096-.672.192-1.296.288-.576.048-1.32.12-2.232.216l.288 3.024c.72 0 1.56-.024 2.52-.072 1.008 0 2.16-.024 3.456-.072 2.64-.144 4.632-.216 5.976-.216 1.776 0 3.408.048 4.896.144 1.488.144 2.856.336 4.104.576zm51.509-13.392h-3.096c-.576 1.344-1.176 2.472-1.8 3.384-.624.912-1.272 1.656-1.944 2.232-2.496 2.256-8.04 3.384-16.632 3.384-2.16 0-4.152-.072-5.976-.216a50.428 50.428 0 0 1-5.04-.792c-.432-2.304-.648-5.928-.648-10.872v-3.6c.048-1.248.096-2.568.144-3.96a59.913 59.913 0 0 1 2.52-.216 34.74 34.74 0 0 1 2.16-.072c7.488 0 11.664.72 12.528 2.16.24.384.384.96.432 1.728.096.72.192 1.68.288 2.88l3.744.144c-.96-3.696-1.44-6.816-1.44-9.36 0-2.352.384-4.392 1.152-6.12l-2.808-.432c-.96 2.832-1.8 4.392-2.52 4.68-.576.24-1.944.408-4.104.504-2.112.048-5.016.072-8.712.072-.24 0-.648-.48-1.224-1.44-.672-1.056-1.056-1.584-1.152-1.584-1.056.384-2.088 1.944-3.096 4.68-.672 1.728-1.2 3.096-1.584 4.104-.384 1.008-.672 1.632-.864 1.872 0 .048-.024.072-.072.072l2.232-12.888c.432-2.304 1.056-3.456 1.872-3.456.048 0 .12.024.216.072.144.048.24.072.288.072.096 0 .144-.072.144-.216 0-1.296.048-2.736.144-4.32.144-1.584.336-3.312.576-5.184 4.464-.432 8.808-.648 13.032-.648 3.6 0 6.672.24 9.216.72 2.16.432 3.24 1.272 3.24 2.52 0 .384-.072.864-.216 1.44-.096.576-.144 1.032-.144 1.368 0 .96.696 1.44 2.088 1.44 1.584 0 2.664-3.792 3.24-11.376-3.6.096-6.72.168-9.36.216-2.64.048-4.752.072-6.336.072h-29.664c-.192.72-.288 1.632-.288 2.736 2.688.432 4.2.792 4.536 1.08.72.624 1.176 2.088 1.368 4.392.096.384.144.984.144 1.8 0 .768.024 1.752.072 2.952.096 4.512.144 8.232.144 11.16.048 2.88.048 4.992 0 6.336l-.072 1.8c-.144 2.976-.288 5.4-.432 7.272-.096 1.872-.216 3.24-.36 4.104-.192 1.248-.48 2.016-.864 2.304-.96.288-1.872.528-2.736.72-.816.192-1.608.336-2.376.432l-.216 3.024c3.744-.096 7.152-.192 10.224-.288 3.072-.096 5.832-.144 8.28-.144h9.576c.576 0 1.488-.24 2.736-.72.672-.288 1.248-.48 1.728-.576.528-.144.936-.216 1.224-.216.192 0 .312.024.36.072-.048.096-.24.312-.576.648-.336.336-.816.84-1.44 1.512v.072c.816 0 1.944-.024 3.384-.072 1.44-.048 3.216-.144 5.328-.288a367.08 367.08 0 0 1 4.104-.216c1.056 0 1.824.024 2.304.072.048-1.344.096-2.424.144-3.24.048-.816.096-1.344.144-1.584.096-1.68.384-3.192.864-4.536.48-1.392 1.104-2.616 1.872-3.672zm50.258 12.312c1.104 0 2.328.048 3.672.144 1.344.096 2.784.192 4.32.288v-3.168c-2.784-.288-4.488-.744-5.112-1.368-.576-.768-1.248-1.824-2.016-3.168s-1.632-3.024-2.592-5.04l-4.032-8.424c-1.68-3.6-3.072-6.6-4.176-9-1.056-2.448-1.872-4.272-2.448-5.472-1.248-2.784-2.4-5.4-3.456-7.848a92.236 92.236 0 0 1-2.592-7.056l-1.656 2.304c0 .048-.048.072-.144.072a.774.774 0 0 1-.432-.144 1.675 1.675 0 0 0-.432-.288l-.648-.432c-.048 0-.072.024-.072.072a51.42 51.42 0 0 1-1.944 4.68 153.886 153.886 0 0 1-2.448 5.256l-10.008 19.512-1.656 3.312c-.432.864-.768 1.56-1.008 2.088a69.92 69.92 0 0 1-1.584 2.808 122.402 122.402 0 0 1-2.016 3.384c-1.056 1.824-1.992 3-2.808 3.528-.864.672-2.304 1.224-4.32 1.656v2.736c1.824-.096 3.48-.168 4.968-.216 1.536-.048 2.928-.072 4.176-.072 1.248 0 2.664.024 4.248.072a111.7 111.7 0 0 1 5.688.504v-3.024c-4.848-.576-7.272-1.488-7.272-2.736 0-.432 1.752-4.224 5.256-11.376.96-.096 2.16-.192 3.6-.288a83.007 83.007 0 0 1 5.256-.144h3.528c1.776 0 3.312.024 4.608.072a45.88 45.88 0 0 1 3.312.216c3.408 7.104 5.112 11.28 5.112 12.528 0 .624-1.512 1.152-4.536 1.584v3.024c3.024-.192 5.496-.336 7.416-.432 1.968-.096 3.384-.144 4.248-.144zm-30.168-20.88l7.848-16.416 3.888 7.776a326.374 326.374 0 0 1 3.528 7.272l2.16.432c1.536.24 2.4.696 2.592 1.368l-9.432-.288h-2.016l-1.224.144h-.648c-1.44 0-2.736-.024-3.888-.072a35.642 35.642 0 0 1-2.808-.216zm81.935-24.336c2.832-.672 5.304-1.104 7.416-1.296v-2.736c-.816 0-2.136.192-3.96.576-.864.096-1.632.192-2.304.288a10.7 10.7 0 0 1-1.584.144c-1.392 0-3.048-.192-4.968-.576a30.73 30.73 0 0 0-2.88-.504 63.245 63.245 0 0 0-2.088-.216l-.576 3.312c3.456.24 5.184.888 5.184 1.944 0 1.296-1.584 4.752-4.752 10.368l-4.968 8.784a462.223 462.223 0 0 1-4.968 8.568c-1.44 2.496-2.736 4.632-3.888 6.408l-2.376-4.104c-11.04-18.672-16.56-29.208-16.56-31.608a7.485 7.485 0 0 1 1.8-.36 27.39 27.39 0 0 1 2.16-.216l1.656-2.88h-7.92l-13.752-.216 1.44 3.312c.672 0 1.224.024 1.656.072.432.048.768.12 1.008.216.144.048.312.168.504.36.192.144.432.336.72.576 1.248 1.104 3.312 4.056 6.192 8.856 2.88 4.752 6.648 11.376 11.304 19.872l3.744 7.056c1.68 3.12 2.976 5.544 3.888 7.272.912 1.68 1.464 2.712 1.656 3.096l5.112 5.472c-1.152-2.304-1.728-4.416-1.728-6.336s1.056-4.848 3.168-8.784c.528-.96 1.224-2.16 2.088-3.6.912-1.488 1.992-3.24 3.24-5.256l10.08-16.56a705.55 705.55 0 0 0 3.096-5.04c.864-1.344 1.536-2.352 2.016-3.024.144-.192.216-.408.216-.648 0-.24-.096-.552-.288-.936-.192-.432-.288-.744-.288-.936 0-.288.168-.528.504-.72zm68.439-.216l.144-3.384h-2.088c-.768 0-1.704.048-2.808.144a67.452 67.452 0 0 1-2.88.072h-2.088c-.672 0-1.872-.024-3.6-.072a311.157 311.157 0 0 1-6.84-.288l-.432 3.384c4.128-.192 6.192.288 6.192 1.44 0 .672-.504 1.8-1.512 3.384-1.008 1.584-2.544 3.6-4.608 6.048a364.557 364.557 0 0 0-4.392 5.4 2200.92 2200.92 0 0 0-2.304 2.808 529.542 529.542 0 0 1-4.32-5.4 726.876 726.876 0 0 0-3.312-4.176 62.112 62.112 0 0 0-2.304-2.808 107.794 107.794 0 0 0-3.024-3.672c-1.344-1.584-2.016-2.448-2.016-2.592h.36c.672-.192 2.304-.36 4.896-.504l.504-3.24-3.168-.144h-1.656c-.672 0-1.56.024-2.664.072-.336 3.36-.792 5.04-1.368 5.04l-2.808-2.52c-1.776-1.632-2.88-2.448-3.312-2.448a29.5 29.5 0 0 0-1.944-.072 16.026 16.026 0 0 0-1.44-.072h-5.616l.648 3.096c1.248.048 2.28.144 3.096.288.816.096 1.44.24 1.872.432 1.248.384 3 1.704 5.256 3.96l4.896 4.968a122.76 122.76 0 0 1 3.6 4.032 47.676 47.676 0 0 1 3.168 3.96l4.392 6.264c.048.384.072.912.072 1.584v8.568c0 1.584-.024 2.88-.072 3.888-.096 2.688-.432 4.248-1.008 4.68-.48.384-1.272.696-2.376.936-1.056.24-2.496.384-4.32.432v2.952c.72 0 1.56-.048 2.52-.144 1.008-.048 2.184-.12 3.528-.216 1.392-.096 2.568-.168 3.528-.216a50.21 50.21 0 0 1 2.448-.072h1.944l8.928.432c.24-.192.36-.408.36-.648 0-.144-.048-.216-.144-.216l.864-.864h-.864c.048-.048.192-.072.432-.072.048-.048.24-.072.576-.072v-.72c-4.848-.864-7.464-1.656-7.848-2.376l-2.016.288c-.672 0-1.008-.288-1.008-.864.48-1.248.936-2.352 1.368-3.312.432-1.008.888-1.872 1.368-2.592l-.144-11.808 4.608-5.688a493.7 493.7 0 0 1 6.912-8.568c1.872-2.256 3.36-3.936 4.464-5.04 1.632-1.584 3.048-2.568 4.248-2.952 1.008-.384 2.712-.624 5.112-.72zm91.084 46.008a50.333 50.333 0 0 1 6.768-1.224 52.288 52.288 0 0 1 6.624-.432c3.6 0 7.2.36 10.8 1.08v-3.168c-.912 0-2.04-.264-3.384-.792-.24-.096-.648-.24-1.224-.432a34.223 34.223 0 0 1-2.088-.864c-1.536-3.072-2.304-13.944-2.304-32.616 0-1.872.072-3.384.216-4.536.192-1.152.432-1.992.72-2.52.864-1.44 2.784-2.304 5.76-2.592l.288-3.168c-2.16.672-4.008 1.152-5.544 1.44-1.488.288-2.664.432-3.528.432h-1.008c-.336 0-.696-.024-1.08-.072l-2.088-.216c-4.992 9.072-12.768 21.168-23.328 36.288-.096-.24-.528-.816-1.296-1.728a480.756 480.756 0 0 1-3.168-3.816c-1.584-1.92-2.712-4.008-3.384-6.264-.048 0-.168-.48-.36-1.44-.048-.288-.096-.48-.144-.576v-.144c-.384 1.824-.72 3.36-1.008 4.608-.24 1.2-.432 2.208-.576 3.024 0 .096-.072-.36-.216-1.368a339.193 339.193 0 0 0-.504-4.752c-.672-4.56-1.08-6.864-1.224-6.912-.336-.384-.648-.624-.936-.72-2.16-1.44-4.08-3.888-5.76-7.344-.096-.288-.432-1.152-1.008-2.592a266.379 266.379 0 0 0-2.52-6.192c-3.12.576-5.496.864-7.128.864-2.304 0-4.8-.456-7.488-1.368l-.432 3.96c1.824.096 3.24.312 4.248.648 1.056.336 1.776.768 2.16 1.296.528.816.792 3.024.792 6.624 0 1.536-.048 3.216-.144 5.04-.048 1.776-.192 3.768-.432 5.976-.288 2.832-.528 5.16-.72 6.984a140.81 140.81 0 0 1-.36 4.032c-.432 5.232-.888 8.28-1.368 9.144-1.056 1.776-3.744 2.952-8.064 3.528l-.216 2.736c4.08-.96 7.848-1.44 11.304-1.44 1.872 0 3.768.144 5.688.432 1.92.24 3.864.624 5.832 1.152l.144-3.024c-3.072-.768-5.496-1.536-7.272-2.304a6.078 6.078 0 0 1-.864-1.656 6.826 6.826 0 0 1-.216-1.656c0-4.08.144-8.496.432-13.248.288-4.8.768-10.032 1.44-15.696 2.448 3.792 4.632 7.2 6.552 10.224 1.968 2.976 3.672 5.568 5.112 7.776 2.16 3.36 4.032 6.648 5.616 9.864a104.435 104.435 0 0 1 4.248 9.288l3.24-1.728a82.2 82.2 0 0 1 4.176-8.928c1.632-3.072 3.528-6.216 5.688-9.432l11.592-16.992c.864 5.76 1.296 13.68 1.296 23.76 0 3.552-.576 6-1.728 7.344-1.104 1.344-3.384 2.4-6.84 3.168l.216 3.24zm75.319-12.888h-3.096c-.576 1.344-1.176 2.472-1.8 3.384-.624.912-1.272 1.656-1.944 2.232-2.496 2.256-8.04 3.384-16.632 3.384-2.16 0-4.152-.072-5.976-.216a50.428 50.428 0 0 1-5.04-.792c-.432-2.304-.648-5.928-.648-10.872v-3.6c.048-1.248.096-2.568.144-3.96a59.913 59.913 0 0 1 2.52-.216 34.74 34.74 0 0 1 2.16-.072c7.488 0 11.664.72 12.528 2.16.24.384.384.96.432 1.728.096.72.192 1.68.288 2.88l3.744.144c-.96-3.696-1.44-6.816-1.44-9.36 0-2.352.384-4.392 1.152-6.12l-2.808-.432c-.96 2.832-1.8 4.392-2.52 4.68-.576.24-1.944.408-4.104.504-2.112.048-5.016.072-8.712.072-.24 0-.648-.48-1.224-1.44-.672-1.056-1.056-1.584-1.152-1.584-1.056.384-2.088 1.944-3.096 4.68-.672 1.728-1.2 3.096-1.584 4.104-.384 1.008-.672 1.632-.864 1.872 0 .048-.024.072-.072.072l2.232-12.888c.432-2.304 1.056-3.456 1.872-3.456.048 0 .12.024.216.072.144.048.24.072.288.072.096 0 .144-.072.144-.216 0-1.296.048-2.736.144-4.32.144-1.584.336-3.312.576-5.184 4.464-.432 8.808-.648 13.032-.648 3.6 0 6.672.24 9.216.72 2.16.432 3.24 1.272 3.24 2.52 0 .384-.072.864-.216 1.44-.096.576-.144 1.032-.144 1.368 0 .96.696 1.44 2.088 1.44 1.584 0 2.664-3.792 3.24-11.376-3.6.096-6.72.168-9.36.216-2.64.048-4.752.072-6.336.072h-29.664c-.192.72-.288 1.632-.288 2.736 2.688.432 4.2.792 4.536 1.08.72.624 1.176 2.088 1.368 4.392.096.384.144.984.144 1.8 0 .768.024 1.752.072 2.952.096 4.512.144 8.232.144 11.16.048 2.88.048 4.992 0 6.336l-.072 1.8c-.144 2.976-.288 5.4-.432 7.272-.096 1.872-.216 3.24-.36 4.104-.192 1.248-.48 2.016-.864 2.304-.96.288-1.872.528-2.736.72-.816.192-1.608.336-2.376.432l-.216 3.024c3.744-.096 7.152-.192 10.224-.288 3.072-.096 5.832-.144 8.28-.144h9.576c.576 0 1.488-.24 2.736-.72.672-.288 1.248-.48 1.728-.576.528-.144.936-.216 1.224-.216.192 0 .312.024.36.072-.048.096-.24.312-.576.648-.336.336-.816.84-1.44 1.512v.072c.816 0 1.944-.024 3.384-.072 1.44-.048 3.216-.144 5.328-.288a367.08 367.08 0 0 1 4.104-.216c1.056 0 1.824.024 2.304.072.048-1.344.096-2.424.144-3.24.048-.816.096-1.344.144-1.584.096-1.68.384-3.192.864-4.536.48-1.392 1.104-2.616 1.872-3.672zm15.266-32.256c1.44 0 2.856.024 4.248.072 1.44.048 2.856.144 4.248.288.528 1.68.792 7.872.792 18.576v10.944c-.288.768-.48 1.608-.576 2.52-.096.864-.144 1.8-.144 2.808.048 1.248.048 2.28 0 3.096 0 .816-.048 1.44-.144 1.872-.144.384-1.056.792-2.736 1.224-.528.144-1.104.288-1.728.432-.576.096-1.152.216-1.728.36-.432.576-.648 1.152-.648 1.728 0 1.152.648 1.728 1.944 1.728 1.152 0 2.856-.072 5.112-.216 1.104-.048 2.088-.096 2.952-.144h2.16c.576 0 1.296.024 2.16.072.912.096 1.944.24 3.096.432 1.248.192 2.304.312 3.168.36.912.096 1.656.144 2.232.144.96 0 1.56-.096 1.8-.288l.432-2.808c-.384-.528-.816-.936-1.296-1.224-.48-.336-1.056-.504-1.728-.504-.816.576-1.464 1.032-1.944 1.368-.432.336-.72.552-.864.648v-.072a1.6 1.6 0 0 0 .216-.504c.096-.24.24-.552.432-.936.384-.768.384-1.152 0-1.152-1.872 0-3.024-.96-3.456-2.88-.096-.528-.168-1.248-.216-2.16a72.467 72.467 0 0 1-.072-3.528c0-.192.192-.6.576-1.224.432-.624.648-1.2.648-1.728 0-1.248-.456-3-1.368-5.256-.432-1.056-.648-2.208-.648-3.456 0-.288.024-.624.072-1.008.048-.432.096-.888.144-1.368.096-.48.168-.912.216-1.296.096-.432.144-.792.144-1.08 0-3.168.072-6.048.216-8.64.144-2.64.408-4.968.792-6.984l6.48-.216c5.808-.144 9.84.36 12.096 1.512-.048.528-.12 1.128-.216 1.8-.096.672-.192 1.392-.288 2.16l3.816-.432c.672-3.168 1.632-6.144 2.88-8.928a5.985 5.985 0 0 1-1.224-.792 22.212 22.212 0 0 1-1.008-1.08c-1.632 1.632-9.168 2.328-22.608 2.088l-21.168-.36a188.294 188.294 0 0 0-4.68-.072h-2.88l-.504-.144v.144c-1.44 0-2.76-.528-3.96-1.584-.624.864-1.368 1.488-2.232 1.872 1.344 2.976 2.328 5.928 2.952 8.856l3.888.432a51.821 51.821 0 0 0-.432-2.088 35.788 35.788 0 0 1-.216-1.8c1.968-1.056 5.568-1.584 10.8-1.584zm81.539 44.568c1.104 0 2.328.048 3.672.144 1.344.096 2.784.192 4.32.288v-3.168c-2.784-.288-4.488-.744-5.112-1.368-.576-.768-1.248-1.824-2.016-3.168s-1.632-3.024-2.592-5.04l-4.032-8.424c-1.68-3.6-3.072-6.6-4.176-9-1.056-2.448-1.872-4.272-2.448-5.472-1.248-2.784-2.4-5.4-3.456-7.848a92.236 92.236 0 0 1-2.592-7.056l-1.656 2.304c0 .048-.048.072-.144.072a.774.774 0 0 1-.432-.144 1.675 1.675 0 0 0-.432-.288l-.648-.432c-.048 0-.072.024-.072.072a51.42 51.42 0 0 1-1.944 4.68 153.886 153.886 0 0 1-2.448 5.256l-10.008 19.512-1.656 3.312c-.432.864-.768 1.56-1.008 2.088a69.92 69.92 0 0 1-1.584 2.808 122.402 122.402 0 0 1-2.016 3.384c-1.056 1.824-1.992 3-2.808 3.528-.864.672-2.304 1.224-4.32 1.656v2.736c1.824-.096 3.48-.168 4.968-.216 1.536-.048 2.928-.072 4.176-.072 1.248 0 2.664.024 4.248.072a111.7 111.7 0 0 1 5.688.504v-3.024c-4.848-.576-7.272-1.488-7.272-2.736 0-.432 1.752-4.224 5.256-11.376.96-.096 2.16-.192 3.6-.288a83.007 83.007 0 0 1 5.256-.144h3.528c1.776 0 3.312.024 4.608.072a45.88 45.88 0 0 1 3.312.216c3.408 7.104 5.112 11.28 5.112 12.528 0 .624-1.512 1.152-4.536 1.584v3.024c3.024-.192 5.496-.336 7.416-.432 1.968-.096 3.384-.144 4.248-.144zm-30.168-20.88l7.848-16.416 3.888 7.776a326.374 326.374 0 0 1 3.528 7.272l2.16.432c1.536.24 2.4.696 2.592 1.368l-9.432-.288h-2.016l-1.224.144h-.648c-1.44 0-2.736-.024-3.888-.072a35.642 35.642 0 0 1-2.808-.216zm83.132 18c.192-.72.984-2.136 2.376-4.248 1.344-2.064 2.04-3.36 2.088-3.888l-3.312-.36c-.72 2.592-1.92 4.296-3.6 5.112-3.6 1.728-9.216 2.592-16.848 2.592-5.472 0-8.664-.264-9.576-.792-.576-.528-.864-3.168-.864-7.92 0-19.488.408-30.048 1.224-31.68.192-.336.504-.624.936-.864a52.024 52.024 0 0 1 3.24-.576 21.515 21.515 0 0 1 2.736-.36l.144-3.24c-.384 0-.84-.048-1.368-.144a56.907 56.907 0 0 1-1.944-.576c-.72-.24-1.368-.408-1.944-.504-.528-.144-.96-.216-1.296-.216-1.488 0-2.952.528-4.392 1.584-.864.624-1.92.936-3.168.936-1.056 0-2.4-.168-4.032-.504-1.68-.336-3.072-.504-4.176-.504v3.096c1.152.048 2.088.096 2.808.144.72.048 1.272.144 1.656.288.48.144.84.576 1.08 1.296.24.576.408 1.896.504 3.96.144 2.016.192 4.776.144 8.28l-.144 16.272a188.294 188.294 0 0 0-.072 4.68c0 1.2-.024 2.088-.072 2.664-.144 2.688-.816 4.296-2.016 4.824-.672.24-2.184.6-4.536 1.08l.216 2.808h32.616c2.304 0 4.44.048 6.408.144 2.016.096 3.912.216 5.688.36.144-.288.216-.576.216-.864l-.504-.648c-.336-.384-.504-.768-.504-1.152 0-.336.096-.696.288-1.08zm88.505 2.88c1.104 0 2.328.048 3.672.144 1.344.096 2.784.192 4.32.288v-3.168c-2.784-.288-4.488-.744-5.112-1.368-.576-.768-1.248-1.824-2.016-3.168s-1.632-3.024-2.592-5.04l-4.032-8.424c-1.68-3.6-3.072-6.6-4.176-9-1.056-2.448-1.872-4.272-2.448-5.472-1.248-2.784-2.4-5.4-3.456-7.848a92.236 92.236 0 0 1-2.592-7.056l-1.656 2.304c0 .048-.048.072-.144.072a.774.774 0 0 1-.432-.144 1.675 1.675 0 0 0-.432-.288l-.648-.432c-.048 0-.072.024-.072.072a51.42 51.42 0 0 1-1.944 4.68 153.886 153.886 0 0 1-2.448 5.256l-10.008 19.512-1.656 3.312c-.432.864-.768 1.56-1.008 2.088a69.92 69.92 0 0 1-1.584 2.808 122.402 122.402 0 0 1-2.016 3.384c-1.056 1.824-1.992 3-2.808 3.528-.864.672-2.304 1.224-4.32 1.656v2.736c1.824-.096 3.48-.168 4.968-.216 1.536-.048 2.928-.072 4.176-.072 1.248 0 2.664.024 4.248.072a111.7 111.7 0 0 1 5.688.504v-3.024c-4.848-.576-7.272-1.488-7.272-2.736 0-.432 1.752-4.224 5.256-11.376.96-.096 2.16-.192 3.6-.288a83.007 83.007 0 0 1 5.256-.144h3.528c1.776 0 3.312.024 4.608.072a45.88 45.88 0 0 1 3.312.216c3.408 7.104 5.112 11.28 5.112 12.528 0 .624-1.512 1.152-4.536 1.584v3.024c3.024-.192 5.496-.336 7.416-.432 1.968-.096 3.384-.144 4.248-.144zm-30.168-20.88l7.848-16.416 3.888 7.776a326.374 326.374 0 0 1 3.528 7.272l2.16.432c1.536.24 2.4.696 2.592 1.368l-9.432-.288h-2.016l-1.224.144h-.648c-1.44 0-2.736-.024-3.888-.072a35.642 35.642 0 0 1-2.808-.216zm55.628 21.312c.384 0 .576-.096.576-.288 0-.288-.504-1.056-1.512-2.304l-1.512-1.872c0-.048.048-.072.144-.072-1.824-.672-2.832-2.568-3.024-5.688-.096-.384-.12-1.152-.072-2.304s.096-2.76.144-4.824l.576-20.88a33.495 33.495 0 0 1 6.48 6.552l3.456 4.68 9.144 10.08c2.976 3.312 6.936 6.984 11.88 11.016 3.792 3.12 6.12 5.328 6.984 6.624l3.384.144a132.657 132.657 0 0 1-.432-7.272 525.408 525.408 0 0 1-.072-9.144c0-15.504.456-25.008 1.368-28.512.192-1.056.96-1.8 2.304-2.232.24-.048.624-.096 1.152-.144.576-.096 1.32-.216 2.232-.36l-.288-3.024c-2.208.048-4.008.072-5.4.072h-3.096c-.432 1.536-.984 2.256-1.656 2.16-.384-.048-.888-.168-1.512-.36a25.012 25.012 0 0 1-2.16-.864 34.223 34.223 0 0 0-2.088-.864c-.48-.192-.84-.288-1.08-.288h-1.584c-.48 0-.912.024-1.296.072l-1.152 2.664c1.584.24 2.88.456 3.888.648a42.19 42.19 0 0 1 2.304.36 4.18 4.18 0 0 1 2.016 1.512c.96 1.488 1.44 5.592 1.44 12.312v7.128c0 2.592-.024 4.896-.072 6.912-.048 2.016-.12 3.792-.216 5.328a1619.282 1619.282 0 0 0-6.912-6.264c-1.872-1.776-3.36-3.192-4.464-4.248l-10.008-9.144c-4.128-3.744-7.224-7.008-9.288-9.792a12496.267 12496.267 0 0 1-5.472-7.2l-4.32.144c-2.928.096-4.872.096-5.832 0v3.312c1.056.144 1.608.264 1.656.36.192.144.432.36.72.648 1.44.912 2.328 2.928 2.664 6.048.048.864.048 3.192 0 6.984l-.288 17.712c-.048 5.088-.384 8.28-1.008 9.576-.432.912-1.536 1.464-3.312 1.656-1.536.096-2.304.696-2.304 1.8 0 1.296.744 1.896 2.232 1.8 2.592-.096 4.704-.192 6.336-.288 1.68-.096 2.904-.144 3.672-.144.96-.048 1.824-.072 2.592-.072.768.048 1.464.096 2.088.144zm71.257-.216c13.201 0 23.061-3.696 29.591-11.088 3.65-3.984 5.47-8.664 5.47-14.04 0-3.888-.98-7.416-2.95-10.584a24.016 24.016 0 0 0-5.69-6.408c-2.3-1.824-5.08-3.36-8.35-4.608-4.37-1.824-10.415-2.736-18.143-2.736-.816 0-1.8.048-2.952.144-1.104.048-2.376.12-3.816.216a85.57 85.57 0 0 1-4.104.288 64.235 64.235 0 0 1-2.664.072h-2.952c-1.152 0-2.496-.024-4.032-.072-.384 0-.864.048-1.44.144-.528.048-1.104.12-1.728.216-.624.048-1.224.096-1.8.144-.528.048-.96.072-1.296.072l.144 3.312 3.024-.216c.672-.048 1.104.072 1.296.36.912 1.104 1.368 8.544 1.368 22.32 0 10.704-.312 16.68-.936 17.928-.288.432-.768.648-1.44.648l-3.816-.072V401l4.536.864 12.456-.288 3.24-1.944c.24-.096.6.36 1.08 1.368.624 1.152 1.296 1.752 2.016 1.8.24 0 .528-.048.864-.144.384-.096.768-.216 1.152-.36.384-.144.744-.264 1.08-.36.336-.096.6-.144.792-.144zm21.381-36.648c2.6 3.168 3.89 7.032 3.89 11.592 0 8.256-3.6 14.352-10.8 18.288-3.89 2.16-8.831 3.24-14.831 3.24-3.264 0-7.344-.648-12.24-1.944l-.216-7.128a12.4 12.4 0 0 1-.072-1.368v-1.44c0-2.208.024-4.776.072-7.704.048-2.976.12-6.312.216-10.008.048-3.072.096-5.568.144-7.488.096-1.968.216-3.36.36-4.176 1.632-.576 5.232-.864 10.8-.864 2.592 0 5.736.72 9.437 2.16 3.64 1.392 6.12 2.088 7.41 2.088.43 0 .75-.024.94-.072 1.15-.096 2.11.384 2.88 1.44l2.01 3.384zm93.33-3.312c.05-2.016.1-3.84.15-5.472.04-1.632.14-3.072.28-4.32-3.02.24-6.31.408-9.86.504-3.55.048-7.44.072-11.66.072h-1.73c-.72 0-1.61-.024-2.67-.072-.67-.048-1.36-.072-2.08-.072h-2.16l-6.84-.216h-1.44l-3.75.072v2.88c1.59.144 2.57.408 2.95.792.05.192.1.36.15.504.09.144.19.336.29.576.67 1.536 1 7.968 1 19.296 0 5.232-.07 9.528-.21 12.888-.15 3.312-.39 5.664-.72 7.056-.19 1.008-.91 1.728-2.16 2.16-.24.048-.63.12-1.15.216-.53.096-1.2.192-2.02.288l-.22 3.024c1.92-.096 3.65-.168 5.19-.216 1.53-.048 2.9-.072 4.1-.072h4.47l7.77.216v-3.168c-2.25-.432-3.43-.744-3.53-.936-1.05-.336-1.77-.696-2.16-1.08-.67-.624-1-2.904-1-6.84 0-3.6-.12-6.552-.36-8.856-.2-2.352-.56-4.056-1.08-5.112.62 0 1.41.312 2.37.936.39.336.67.6.87.792.24.144.36.288.36.432 6.81 0 10.94.432 12.38 1.296.58-1.392 1.22-2.088 1.94-2.088.05.048.08 1.44.08 4.176l3.02 1.656c.05-.72-.14-1.92-.58-3.6-.43-1.488-.64-2.592-.64-3.312 0-.384.04-.84.14-1.368.14-.576.34-1.224.58-1.944.43-1.392.6-2.52.5-3.384-.29.096-.74.336-1.37.72-.62.336-1.13.504-1.51.504 0 .96-.14 1.656-.43 2.088l-.65.576c-.53.816-4.27 1.224-11.23 1.224-.05 0-.17-.024-.36-.072-.82-.048-1.49-.072-2.02-.072s-.96-.048-1.29-.144l-.65-.072v-4.968c0-2.928.02-5.448.07-7.56.05-2.112.14-3.864.29-5.256.86-.144 2.06-.24 3.6-.288 1.53-.048 3.43-.072 5.69-.072 8.73 0 13.63.816 14.68 2.448.53.816.89 2.4 1.08 4.752l1.37-3.816c0-.192.03-.312.07-.36.05 0 .36.528.94 1.584.67.96 1.03 1.44 1.08 1.44.05 0 .07-.12.07-.36zm37.41 39.744c1.1 0 2.33.048 3.67.144 1.34.096 2.78.192 4.32.288v-3.168c-2.78-.288-4.49-.744-5.11-1.368-.58-.768-1.25-1.824-2.02-3.168s-1.63-3.024-2.59-5.04l-4.03-8.424c-1.68-3.6-3.07-6.6-4.18-9-1.05-2.448-1.87-4.272-2.45-5.472-1.24-2.784-2.4-5.4-3.45-7.848a91.348 91.348 0 0 1-2.59-7.056l-1.66 2.304c0 .048-.05.072-.14.072a.798.798 0 0 1-.44-.144 1.592 1.592 0 0 0-.43-.288l-.65-.432c-.04 0-.07.024-.07.072a51.338 51.338 0 0 1-1.94 4.68c-.72 1.632-1.54 3.384-2.45 5.256l-10.01 19.512-1.65 3.312c-.44.864-.77 1.56-1.01 2.088-.43.816-.96 1.752-1.59 2.808-.57 1.008-1.24 2.136-2.01 3.384-1.06 1.824-1.99 3-2.81 3.528-.86.672-2.3 1.224-4.32 1.656v2.736c1.82-.096 3.48-.168 4.97-.216 1.53-.048 2.93-.072 4.17-.072 1.25 0 2.67.024 4.25.072 1.63.096 3.53.264 5.69.504v-3.024c-4.85-.576-7.27-1.488-7.27-2.736 0-.432 1.75-4.224 5.25-11.376.96-.096 2.16-.192 3.6-.288 1.49-.096 3.24-.144 5.26-.144h3.53c1.77 0 3.31.024 4.61.072 1.34.048 2.44.12 3.31.216 3.41 7.104 5.11 11.28 5.11 12.528 0 .624-1.51 1.152-4.54 1.584v3.024c3.03-.192 5.5-.336 7.42-.432 1.97-.096 3.38-.144 4.25-.144zm-30.17-20.88l7.85-16.416c1.34 2.688 2.64 5.28 3.89 7.776 1.24 2.496 2.42 4.92 3.52 7.272l2.16.432c1.54.24 2.4.696 2.6 1.368l-9.44-.288h-2.01l-1.23.144h-.64c-1.44 0-2.74-.024-3.89-.072-1.11-.048-2.04-.12-2.81-.216zm55.63 21.312c.38 0 .57-.096.57-.288 0-.288-.5-1.056-1.51-2.304l-1.51-1.872c0-.048.05-.072.14-.072-1.82-.672-2.83-2.568-3.02-5.688-.1-.384-.12-1.152-.07-2.304.05-1.152.09-2.76.14-4.824l.58-20.88a33.832 33.832 0 0 1 6.48 6.552l3.45 4.68 9.15 10.08c2.97 3.312 6.93 6.984 11.88 11.016 3.79 3.12 6.12 5.328 6.98 6.624l3.39.144c-.2-2.112-.34-4.536-.44-7.272-.04-2.736-.07-5.784-.07-9.144 0-15.504.46-25.008 1.37-28.512.19-1.056.96-1.8 2.3-2.232.24-.048.63-.096 1.16-.144.57-.096 1.32-.216 2.23-.36l-.29-3.024c-2.21.048-4.01.072-5.4.072h-3.1c-.43 1.536-.98 2.256-1.65 2.16-.39-.048-.89-.168-1.51-.36-.58-.192-1.3-.48-2.16-.864-.87-.384-1.56-.672-2.09-.864-.48-.192-.84-.288-1.08-.288h-1.59c-.48 0-.91.024-1.29.072l-1.15 2.664c1.58.24 2.88.456 3.88.648 1.06.144 1.83.264 2.31.36.81.288 1.49.792 2.01 1.512.96 1.488 1.44 5.592 1.44 12.312v7.128c0 2.592-.02 4.896-.07 6.912a160.26 160.26 0 0 1-.21 5.328c-2.69-2.448-5-4.536-6.92-6.264-1.87-1.776-3.36-3.192-4.46-4.248l-10.01-9.144c-4.13-3.744-7.22-7.008-9.29-9.792-1.68-2.208-2.97-3.912-3.88-5.112-.92-1.2-1.44-1.896-1.59-2.088l-4.32.144c-2.93.096-4.87.096-5.83 0v3.312c1.06.144 1.61.264 1.66.36.19.144.43.36.72.648 1.44.912 2.32 2.928 2.66 6.048.05.864.05 3.192 0 6.984l-.29 17.712c-.05 5.088-.38 8.28-1.01 9.576-.43.912-1.53 1.464-3.31 1.656-1.53.096-2.3.696-2.3 1.8 0 1.296.74 1.896 2.23 1.8 2.59-.096 4.7-.192 6.34-.288 1.68-.096 2.9-.144 3.67-.144.96-.048 1.82-.072 2.59-.072.77.048 1.46.096 2.09.144zm58.66-45c1.44 0 2.85.024 4.24.072 1.44.048 2.86.144 4.25.288.53 1.68.79 7.872.79 18.576v10.944c-.28.768-.48 1.608-.57 2.52-.1.864-.15 1.8-.15 2.808.05 1.248.05 2.28 0 3.096 0 .816-.04 1.44-.14 1.872-.14.384-1.06.792-2.74 1.224-.52.144-1.1.288-1.72.432-.58.096-1.16.216-1.73.36-.43.576-.65 1.152-.65 1.728 0 1.152.65 1.728 1.94 1.728 1.16 0 2.86-.072 5.12-.216 1.1-.048 2.08-.096 2.95-.144h2.16c.57 0 1.29.024 2.16.072.91.096 1.94.24 3.09.432 1.25.192 2.31.312 3.17.36.91.096 1.66.144 2.23.144.96 0 1.56-.096 1.8-.288l.44-2.808c-.39-.528-.82-.936-1.3-1.224-.48-.336-1.06-.504-1.73-.504-.81.576-1.46 1.032-1.94 1.368-.43.336-.72.552-.87.648v-.072c.1-.144.17-.312.22-.504.1-.24.24-.552.43-.936.39-.768.39-1.152 0-1.152-1.87 0-3.02-.96-3.45-2.88-.1-.528-.17-1.248-.22-2.16-.05-.96-.07-2.136-.07-3.528 0-.192.19-.6.57-1.224.44-.624.65-1.2.65-1.728 0-1.248-.45-3-1.37-5.256-.43-1.056-.64-2.208-.64-3.456 0-.288.02-.624.07-1.008.05-.432.09-.888.14-1.368.1-.48.17-.912.22-1.296.09-.432.14-.792.14-1.08 0-3.168.07-6.048.22-8.64.14-2.64.41-4.968.79-6.984l6.48-.216c5.81-.144 9.84.36 12.1 1.512a33.96 33.96 0 0 1-.22 1.8c-.1.672-.19 1.392-.29 2.16l3.82-.432c.67-3.168 1.63-6.144 2.88-8.928a6.15 6.15 0 0 1-1.23-.792c-.33-.336-.67-.696-1-1.08-1.64 1.632-9.17 2.328-22.61 2.088l-21.17-.36c-1.87-.048-3.43-.072-4.68-.072h-2.88l-.5-.144v.144c-1.44 0-2.76-.528-3.96-1.584-.63.864-1.37 1.488-2.24 1.872 1.35 2.976 2.33 5.928 2.96 8.856l3.88.432c-.14-.768-.28-1.464-.43-2.088-.09-.672-.17-1.272-.21-1.8 1.96-1.056 5.56-1.584 10.8-1.584zm81.53 44.568c1.11 0 2.33.048 3.68.144 1.34.096 2.78.192 4.32.288v-3.168c-2.79-.288-4.49-.744-5.12-1.368-.57-.768-1.24-1.824-2.01-3.168-.77-1.344-1.63-3.024-2.59-5.04l-4.04-8.424c-1.68-3.6-3.07-6.6-4.17-9-1.06-2.448-1.87-4.272-2.45-5.472-1.25-2.784-2.4-5.4-3.46-7.848-1-2.448-1.87-4.8-2.59-7.056l-1.65 2.304c0 .048-.05.072-.15.072a.768.768 0 0 1-.43-.144c-.1-.096-.24-.192-.43-.288l-.65-.432c-.05 0-.07.024-.07.072a51.542 51.542 0 0 1-1.95 4.68c-.72 1.632-1.53 3.384-2.44 5.256l-10.01 19.512c-.67 1.344-1.23 2.448-1.66 3.312-.43.864-.77 1.56-1.01 2.088a71.9 71.9 0 0 1-1.58 2.808c-.58 1.008-1.25 2.136-2.02 3.384-1.05 1.824-1.99 3-2.8 3.528-.87.672-2.31 1.224-4.32 1.656v2.736c1.82-.096 3.48-.168 4.96-.216 1.54-.048 2.93-.072 4.18-.072 1.25 0 2.66.024 4.25.072 1.63.096 3.53.264 5.69.504v-3.024c-4.85-.576-7.28-1.488-7.28-2.736 0-.432 1.76-4.224 5.26-11.376.96-.096 2.16-.192 3.6-.288 1.49-.096 3.24-.144 5.26-.144h3.52c1.78 0 3.32.024 4.61.072 1.35.048 2.45.12 3.31.216 3.41 7.104 5.12 11.28 5.12 12.528 0 .624-1.52 1.152-4.54 1.584v3.024c3.02-.192 5.5-.336 7.42-.432 1.96-.096 3.38-.144 4.24-.144zm-30.16-20.88l7.84-16.416c1.35 2.688 2.64 5.28 3.89 7.776 1.25 2.496 2.43 4.92 3.53 7.272l2.16.432c1.54.24 2.4.696 2.59 1.368l-9.43-.288h-2.02l-1.22.144h-.65c-1.44 0-2.73-.024-3.89-.072a35.25 35.25 0 0 1-2.8-.216zm77.44 15.264c1.68-2.064 2.52-4.392 2.52-6.984 0-5.808-3.07-9.864-9.22-12.168-2.44-.912-5.04-1.848-7.77-2.808-2.74-1.008-5.62-2.064-8.64-3.168-3.79-1.296-5.69-3.72-5.69-7.272 0-2.208.96-3.744 2.88-4.608l8.57-3.672a6.189 6.189 0 0 1 3.02-.792c2.26 0 5.19 1.44 8.79 4.32.24.24.48.456.72.648.28.192.6.408.93.648.1.24.19.552.29.936.14.384.26.912.36 1.584l3.46 2.232c.09-.432.09-1.104 0-2.016-.1-.96-.24-2.208-.44-3.744l.8-6.48c-.96-.288-1.66-.432-2.09-.432l-.58.288c-.72.384-1.49.576-2.3.576-.15 0-.41-.024-.79-.072-.39-.048-.84-.12-1.37-.216-.24-.048-.75-.144-1.51-.288a179.7 179.7 0 0 1-3.03-.792c-2.01-.528-3.5-.792-4.46-.792-.34 0-.63.024-.87.072-.19 0-.4.024-.64.072-.68.288-1.56.6-2.67.936-1.1.288-2.42.624-3.96 1.008-2.54.576-4.46 1.224-5.76 1.944-4.56 2.496-6.84 6.168-6.84 11.016 0 5.76 3.96 9.96 11.88 12.6 2.83.912 5.16 1.68 6.99 2.304 1.87.576 3.28 1.008 4.24 1.296 5.14 1.728 7.71 4.728 7.71 9 0 3.12-1.08 5.112-3.24 5.976-2.55 1.056-4.99 1.584-7.35 1.584-2.88 0-5.56-.36-8.06-1.08-4.85-1.248-7.85-2.448-9-3.6-.86-.816-1.51-1.848-1.94-3.096l-1.44-3.456-1.3 2.736c-.91 1.872-1.56 2.88-1.94 3.024.09.384.33.984.72 1.8.38.768.86 1.8 1.44 3.096.43 1.152.62 2.424.57 3.816l3.39.792c-.1-.288-.1-1.008 0-2.16.09-1.104.14-1.656.14-1.656.72.768 1.22 1.464 1.51 2.088 2.45.528 4.8.912 7.06 1.152 2.25.288 4.39.432 6.41.432 8.92 0 15.09-2.208 18.5-6.624zm62.1-39.816l.15-3.384h-2.09c-.77 0-1.71.048-2.81.144-1.1.048-2.06.072-2.88.072h-2.09c-.67 0-1.87-.024-3.6-.072-1.73-.048-4.01-.144-6.84-.288l-.43 3.384c4.13-.192 6.19.288 6.19 1.44 0 .672-.5 1.8-1.51 3.384-1.01 1.584-2.54 3.6-4.61 6.048a362.413 362.413 0 0 0-4.39 5.4c-1.1 1.344-1.87 2.28-2.3 2.808a373.747 373.747 0 0 1-4.32-5.4 789.187 789.187 0 0 0-3.32-4.176 60.426 60.426 0 0 0-2.3-2.808c-.86-1.104-1.87-2.328-3.02-3.672-1.35-1.584-2.02-2.448-2.02-2.592h.36c.67-.192 2.3-.36 4.9-.504l.5-3.24-3.17-.144h-1.65c-.68 0-1.56.024-2.67.072-.33 3.36-.79 5.04-1.37 5.04l-2.8-2.52c-1.78-1.632-2.88-2.448-3.32-2.448a29.29 29.29 0 0 0-1.94-.072c-.53-.048-1.01-.072-1.44-.072h-5.62l.65 3.096c1.25.048 2.28.144 3.1.288.81.096 1.44.24 1.87.432 1.25.384 3 1.704 5.26 3.96l4.89 4.968c1.3 1.392 2.5 2.736 3.6 4.032a48.123 48.123 0 0 1 3.17 3.96l4.39 6.264c.05.384.07.912.07 1.584v8.568c0 1.584-.02 2.88-.07 3.888-.09 2.688-.43 4.248-1.01 4.68-.48.384-1.27.696-2.37.936-1.06.24-2.5.384-4.32.432v2.952c.72 0 1.56-.048 2.52-.144 1.01-.048 2.18-.12 3.53-.216 1.39-.096 2.56-.168 3.52-.216.96-.048 1.78-.072 2.45-.072h1.95l8.92.432c.24-.192.36-.408.36-.648 0-.144-.04-.216-.14-.216l.86-.864h-.86c.05-.048.19-.072.43-.072.05-.048.24-.072.58-.072v-.72c-4.85-.864-7.47-1.656-7.85-2.376l-2.02.288c-.67 0-1-.288-1-.864a67.44 67.44 0 0 1 1.36-3.312c.44-1.008.89-1.872 1.37-2.592l-.14-11.808 4.61-5.688c2.73-3.456 5.04-6.312 6.91-8.568 1.87-2.256 3.36-3.936 4.46-5.04 1.63-1.584 3.05-2.568 4.25-2.952 1.01-.384 2.71-.624 5.11-.72zm87.85 38.52c.38-.816.74-1.536 1.08-2.16.33-.672.67-1.296 1-1.872 0-.288-.09-.432-.28-.432-.05 0-.34.12-.87.36-.48.24-.84.36-1.08.36-.14 0-.31-.048-.5-.144-.19-.144-.36-.216-.51-.216-.43 0-.86.336-1.29 1.008-1.54 2.16-3.15 3.744-4.83 4.752-2.68 1.728-6.12 2.592-10.29 2.592-4.99 0-9.96-1.632-14.91-4.896-6-3.888-9-9.648-9-17.28 0-8.928 2.07-14.184 6.2-15.768l7.56-3.6c2.78-1.44 5.56-2.16 8.35-2.16 2.16 0 4.87.408 8.13 1.224 1.88.48 3.39 1.008 4.54 1.584 1.15.576 1.99 1.2 2.52 1.872.24.336.43 1.224.58 2.664.09.96.38 1.632.86 2.016.34.24 1.08.432 2.23.576v-.72c0-.48-.05-1.104-.14-1.872-.1-.816-.15-1.488-.15-2.016 0-2.544.96-4.488 2.88-5.832-.76-.72-1.32-1.032-1.65-.936-.24 0-.51.024-.79.072-.24 0-.56.024-.94.072-.48 0-1.01-.024-1.58-.072-.58-.096-1.2-.264-1.88-.504-4.41-1.296-8.61-1.944-12.6-1.944-5.61 0-10.8.864-15.55 2.592-2.73 1.008-5.18 2.208-7.34 3.6s-4.03 3-5.62 4.824c-3.45 4.032-5.18 8.808-5.18 14.328 0 7.968 3.43 14.376 10.29 19.224 6.1 4.32 13.3 6.48 21.6 6.48 4.42 0 11.36-1.176 20.81-3.528.15-.576.22-1.08.22-1.512 0-.912-.31-1.608-.94-2.088-.24-.192-.45-.312-.65-.36-.14-.096-.24-.192-.28-.288zm62.3-35.424c0-.048-.48-.624-1.44-1.728-.91-1.056-1.37-1.68-1.37-1.872 0-.048.05-.072.14-.072 1.11.048 2.14.12 3.1.216 1.01.048 1.97.144 2.88.288l.58-.792c.43-.576.79-.864 1.08-.864v-3.24c-.77-.096-1.68-.072-2.74.072-1.06.096-2.28.264-3.67.504-3.07.528-5.23.792-6.48.792-.34 0-1.59.072-3.75.216l.44 3.168c2.49 0 4.03.432 4.6 1.296.96 1.344 1.44 4.992 1.44 10.944 0 11.28-.81 18.912-2.44 22.896-1.11 2.544-3.77 4.464-8 5.76-1.68.528-3.36.912-5.04 1.152-1.68.24-3.43.36-5.25.36-9.99 0-15.7-2.856-17.14-8.568-.33-1.104-.57-2.928-.72-5.472-.09-2.544-.14-5.784-.14-9.72 0-9.936.38-15.552 1.15-16.848.67-.864 2.04-1.512 4.1-1.944.34 0 .6-.024.8-.072l-.44-1.296.15-2.088c-2.69.144-5.14.24-7.35.288-2.16.048-4.08.072-5.76.072h-4.03c-1.2 0-2.28-.024-3.24-.072l-.43 3.168c1.58.144 2.81.264 3.67.36.91.096 1.49.192 1.73.288.19 0 .34.144.43.432.77 2.112 1.15 6.552 1.15 13.32 0 .864-.43 2.376-1.29 4.536a36.735 36.735 0 0 0-1.01 2.88c-.19.768-.31 1.416-.36 1.944 0 .96.41 2.328 1.22 4.104.87 1.68 1.3 2.568 1.3 2.664 0 5.856 2.64 10.2 7.92 13.032 4.32 2.208 9.6 3.312 15.84 3.312 12.67 0 20.76-2.712 24.26-8.136 2.16-3.312 3.46-10.56 3.89-21.744.15-3.744.22-7.32.22-10.728.14-1.488.14-2.424 0-2.808zm49.94 39.456c.19-.72.98-2.136 2.37-4.248 1.35-2.064 2.04-3.36 2.09-3.888l-3.31-.36c-.72 2.592-1.92 4.296-3.6 5.112-3.6 1.728-9.22 2.592-16.85 2.592-5.47 0-8.66-.264-9.57-.792-.58-.528-.87-3.168-.87-7.92 0-19.488.41-30.048 1.23-31.68.19-.336.5-.624.93-.864 1.15-.24 2.23-.432 3.24-.576 1.01-.192 1.92-.312 2.74-.36l.14-3.24c-.38 0-.84-.048-1.37-.144-.52-.144-1.17-.336-1.94-.576-.72-.24-1.37-.408-1.94-.504-.53-.144-.96-.216-1.3-.216-1.49 0-2.95.528-4.39 1.584-.87.624-1.92.936-3.17.936-1.06 0-2.4-.168-4.03-.504-1.68-.336-3.07-.504-4.18-.504v3.096c1.15.048 2.09.096 2.81.144.72.048 1.27.144 1.66.288.48.144.84.576 1.08 1.296.24.576.4 1.896.5 3.96.14 2.016.19 4.776.14 8.28l-.14 16.272c-.05 1.872-.07 3.432-.07 4.68 0 1.2-.03 2.088-.07 2.664-.15 2.688-.82 4.296-2.02 4.824-.67.24-2.18.6-4.54 1.08l.22 2.808h32.62c2.3 0 4.44.048 6.4.144 2.02.096 3.92.216 5.69.36.15-.288.22-.576.22-.864l-.51-.648c-.33-.384-.5-.768-.5-1.152 0-.336.1-.696.29-1.08zm6.19-41.688c1.44 0 2.86.024 4.25.072 1.44.048 2.85.144 4.25.288.52 1.68.79 7.872.79 18.576v10.944c-.29.768-.48 1.608-.58 2.52-.09.864-.14 1.8-.14 2.808.05 1.248.05 2.28 0 3.096 0 .816-.05 1.44-.15 1.872-.14.384-1.05.792-2.73 1.224-.53.144-1.11.288-1.73.432-.58.096-1.15.216-1.73.36-.43.576-.65 1.152-.65 1.728 0 1.152.65 1.728 1.95 1.728 1.15 0 2.85-.072 5.11-.216 1.1-.048 2.09-.096 2.95-.144h2.16c.58 0 1.3.024 2.16.072.91.096 1.95.24 3.1.432 1.25.192 2.3.312 3.17.36.91.096 1.65.144 2.23.144.96 0 1.56-.096 1.8-.288l.43-2.808a4.407 4.407 0 0 0-1.3-1.224c-.48-.336-1.05-.504-1.72-.504l-1.95 1.368c-.43.336-.72.552-.86.648v-.072c.09-.144.17-.312.21-.504.1-.24.24-.552.44-.936.38-.768.38-1.152 0-1.152-1.88 0-3.03-.96-3.46-2.88-.1-.528-.17-1.248-.22-2.16-.04-.96-.07-2.136-.07-3.528 0-.192.19-.6.58-1.224.43-.624.65-1.2.65-1.728 0-1.248-.46-3-1.37-5.256-.43-1.056-.65-2.208-.65-3.456 0-.288.02-.624.07-1.008.05-.432.1-.888.15-1.368.09-.48.16-.912.21-1.296.1-.432.15-.792.15-1.08 0-3.168.07-6.048.21-8.64.15-2.64.41-4.968.79-6.984l6.48-.216c5.81-.144 9.84.36 12.1 1.512a33.96 33.96 0 0 1-.22 1.8c-.09.672-.19 1.392-.28 2.16l3.81-.432c.67-3.168 1.63-6.144 2.88-8.928-.48-.24-.89-.504-1.22-.792a22.23 22.23 0 0 1-1.01-1.08c-1.63 1.632-9.17 2.328-22.61 2.088l-21.17-.36c-1.87-.048-3.43-.072-4.68-.072h-2.88l-.5-.144v.144c-1.44 0-2.76-.528-3.96-1.584-.62.864-1.37 1.488-2.23 1.872 1.34 2.976 2.33 5.928 2.95 8.856l3.89.432c-.15-.768-.29-1.464-.43-2.088a33.96 33.96 0 0 1-.22-1.8c1.97-1.056 5.57-1.584 10.8-1.584zm100.45 2.232c0-.048-.48-.624-1.44-1.728-.91-1.056-1.36-1.68-1.36-1.872 0-.048.04-.072.14-.072 1.1.048 2.14.12 3.1.216 1 .048 1.96.144 2.88.288l.57-.792c.43-.576.79-.864 1.08-.864v-3.24c-.77-.096-1.68-.072-2.73.072-1.06.096-2.28.264-3.68.504-3.07.528-5.23.792-6.48.792-.33 0-1.58.072-3.74.216l.43 3.168c2.5 0 4.03.432 4.61 1.296.96 1.344 1.44 4.992 1.44 10.944 0 11.28-.82 18.912-2.45 22.896-1.1 2.544-3.77 4.464-7.99 5.76-1.68.528-3.36.912-5.04 1.152-1.68.24-3.43.36-5.26.36-9.98 0-15.69-2.856-17.13-8.568-.34-1.104-.58-2.928-.72-5.472-.1-2.544-.15-5.784-.15-9.72 0-9.936.39-15.552 1.16-16.848.67-.864 2.04-1.512 4.1-1.944.34 0 .6-.024.79-.072l-.43-1.296.14-2.088c-2.68.144-5.13.24-7.34.288-2.16.048-4.08.072-5.76.072h-4.03c-1.2 0-2.28-.024-3.24-.072l-.43 3.168c1.58.144 2.8.264 3.67.36.91.096 1.49.192 1.73.288.19 0 .33.144.43.432.77 2.112 1.15 6.552 1.15 13.32 0 .864-.43 2.376-1.3 4.536a36.21 36.21 0 0 0-1 2.88c-.2.768-.32 1.416-.36 1.944 0 .96.4 2.328 1.22 4.104.86 1.68 1.3 2.568 1.3 2.664 0 5.856 2.64 10.2 7.92 13.032 4.32 2.208 9.6 3.312 15.84 3.312 12.67 0 20.76-2.712 24.26-8.136 2.16-3.312 3.46-10.56 3.89-21.744.14-3.744.21-7.32.21-10.728.15-1.488.15-2.424 0-2.808zm55.63 43.344c.67-.288 1.01-.72 1.01-1.296 0-1.056-.58-1.632-1.73-1.728-1.82-.144-2.85-.48-3.09-1.008-.87-1.968-2.26-4.008-4.18-6.12-.53-.528-1.18-1.368-1.94-2.52-.77-1.2-1.64-2.64-2.6-4.32-1.1-1.824-2.06-3.336-2.88-4.536a48.909 48.909 0 0 0-1.87-2.88c7.92-2.736 11.88-6.984 11.88-12.744 0-1.728-.48-3.432-1.44-5.112-1.68-2.976-4.53-5.208-8.57-6.696-3.36-1.2-7-1.8-10.94-1.8-.91 0-2.06.048-3.46.144-1.34.096-2.92.216-4.75.36-3.74.288-6.48.432-8.21.432h-3.6c-1.1 0-2.2-.024-3.31-.072l1.73 2.52c1.58.432 2.38.84 2.38 1.224.57.144 1 .576 1.29 1.296.48 1.2.72 5.376.72 12.528V386.6c0 6.624-.48 10.416-1.44 11.376-.62.288-1.2.528-1.73.72-.48.192-.91.36-1.29.504-1.39.432-2.09 1.032-2.09 1.8 0 1.056.65 1.584 1.94 1.584l3.03.504c.24.048.48.072.72.072h.72c.29 0 .65-.072 1.08-.216.48-.096.96-.216 1.44-.36.53-.144 1.03-.288 1.51-.432.48-.096.89-.144 1.22-.144 1.88 0 4.73.216 8.57.648 1.01 0 1.51-.576 1.51-1.728 0-.672-.74-1.224-2.23-1.656-.62 0-2.88.432-6.77 1.296l-.93-1.656c2.06-.096 3.14-.216 3.24-.36.33-.576.48-.888.43-.936-.77-1.536-1.1-7.752-1.01-18.648 1.25.144 2.59.24 4.03.288 1.44.048 2.96.072 4.54.072 1.97 2.016 3.62 3.768 4.97 5.256 1.39 1.488 2.49 2.736 3.31 3.744 1.39 1.68 2.59 3.36 3.6 5.04a43.593 43.593 0 0 1 2.66 4.968c2.31 3.168 4.16 4.752 5.55 4.752.09 0 .69-.072 1.8-.216a472.595 472.595 0 0 0 5.18-.288zm-15.55-41.04c.96 1.776 1.44 3.384 1.44 4.824 0 6.096-4.94 9.144-14.83 9.144-2.5 0-4.63-.144-6.41-.432.1-11.184.41-17.352.94-18.504.33-.624 1.34-.408 3.02.648.34.144.62.216.86.216.34 0 .89-.336 1.66-1.008l1.01-1.152c5.76 0 9.86 2.088 12.31 6.264zm67.38 27.72h-3.1c-.58 1.344-1.18 2.472-1.8 3.384-.62.912-1.27 1.656-1.94 2.232-2.5 2.256-8.04 3.384-16.64 3.384-2.16 0-4.15-.072-5.97-.216a50.064 50.064 0 0 1-5.04-.792c-.43-2.304-.65-5.928-.65-10.872v-3.6c.05-1.248.1-2.568.14-3.96.92-.096 1.76-.168 2.52-.216.77-.048 1.49-.072 2.16-.072 7.49 0 11.67.72 12.53 2.16.24.384.39.96.43 1.728.1.72.2 1.68.29 2.88l3.75.144c-.96-3.696-1.44-6.816-1.44-9.36 0-2.352.38-4.392 1.15-6.12l-2.81-.432c-.96 2.832-1.8 4.392-2.52 4.68-.58.24-1.94.408-4.1.504-2.12.048-5.02.072-8.72.072-.24 0-.64-.48-1.22-1.44-.67-1.056-1.06-1.584-1.15-1.584-1.06.384-2.09 1.944-3.1 4.68-.67 1.728-1.2 3.096-1.58 4.104-.39 1.008-.67 1.632-.87 1.872 0 .048-.02.072-.07.072l2.23-12.888c.44-2.304 1.06-3.456 1.88-3.456.04 0 .12.024.21.072.15.048.24.072.29.072.1 0 .14-.072.14-.216 0-1.296.05-2.736.15-4.32.14-1.584.33-3.312.57-5.184 4.47-.432 8.81-.648 13.04-.648 3.6 0 6.67.24 9.21.72 2.16.432 3.24 1.272 3.24 2.52 0 .384-.07.864-.21 1.44-.1.576-.15 1.032-.15 1.368 0 .96.7 1.44 2.09 1.44 1.58 0 2.66-3.792 3.24-11.376-3.6.096-6.72.168-9.36.216-2.64.048-4.75.072-6.34.072h-29.66c-.19.72-.29 1.632-.29 2.736 2.69.432 4.2.792 4.54 1.08.72.624 1.17 2.088 1.37 4.392.09.384.14.984.14 1.8 0 .768.02 1.752.07 2.952.1 4.512.15 8.232.15 11.16.04 2.88.04 4.992 0 6.336l-.08 1.8c-.14 2.976-.28 5.4-.43 7.272-.09 1.872-.21 3.24-.36 4.104-.19 1.248-.48 2.016-.86 2.304-.96.288-1.87.528-2.74.72-.81.192-1.61.336-2.37.432l-.22 3.024c3.74-.096 7.15-.192 10.22-.288 3.08-.096 5.84-.144 8.28-.144h9.58c.58 0 1.49-.24 2.74-.72.67-.288 1.24-.48 1.72-.576.53-.144.94-.216 1.23-.216.19 0 .31.024.36.072-.05.096-.24.312-.58.648-.33.336-.81.84-1.44 1.512v.072c.82 0 1.95-.024 3.39-.072 1.44-.048 3.21-.144 5.32-.288 1.68-.096 3.05-.168 4.11-.216 1.05 0 1.82.024 2.3.072.05-1.344.1-2.424.15-3.24.04-.816.09-1.344.14-1.584.1-1.68.38-3.192.86-4.536.48-1.392 1.11-2.616 1.88-3.672z" fill="#fff"/></svg>